<svg width="905" height="531" viewBox="0 0 905 531" fill="none" xmlns="http://www.w3.org/2000/svg">
<g style="mix-blend-mode:multiply" opacity="0.52" filter="url(#filter0_d_7_818)">
<path d="M124.191 233.888V236.784L134.556 237.186L141.82 235.635L134.556 234.353L124.191 233.888Z" fill="#ADACC2"/>
<path d="M243.177 317.394L229.948 314.713L228.973 311.589L221.731 305.985L211.956 304.41L215.883 298.942L211.956 286.465L201.678 279.503L195.551 277.606L193.323 272.235L188.031 270.045L185.268 263.266L176.491 263.425L170.595 263.752L168.857 260.414L159.566 260.513L155.384 260.667L163.132 256.535L153.495 256.699L145.16 261.045L153.662 256.55L143.723 256.72L129.074 263.343V267.398L114.049 267.644L108.933 257.46L114.782 245.757L101.413 240.624L111.718 222.611L100.638 221.896L90.0106 222.103L88.1776 226.219L86.3736 223.103L88.8801 202.997L95.843 194.656L99.3097 193.351L108.098 194.395L111.718 190.64L116.723 190.532V200.744L121.606 207.591L132.05 208.618L134.557 204.033V190.148L136.506 183.587L144.305 176.894L155.167 173.529V165.016L168.257 152.784L191.978 140.748L196.665 142.143L215.326 134.56L207.806 117.805L225.909 120.608L236.493 113.485L238.442 106.3L231.758 97.6385L232.036 86.7924L224.723 83.049L221.312 84.0748L221.453 82.8167L213.809 78.9912L207.841 77.1981L198.058 67.2648L210.962 65.0779L217.925 59.7887L210.17 55.4576L202.319 53.8045L196.842 56.5478L197.129 55.1512L196.665 48.3363L188.245 43.7657L177.33 44.1071L178.287 51.0519L176.612 51.7124V46.3046L167.564 41.7021L150.904 39.9055L141.569 37.8813L124.191 43.0664L134.245 52.8917L124.191 53.2011L104.372 55.5462L84.266 57.0289L60.5691 55.1591L41.7553 60.3454L41.1809 66.9857L29.4043 73.3813L13.6064 86.495L7 100.187L20.9227 103.455L55.3533 87.608L60.5691 90.9113L54.9681 104.04L50.0851 133.274L46.6383 140.852L35.4362 153.509V194.957L47.7872 213.13L53.6848 211.508L55.8298 217.436V227.091L69.3298 240.68L77.0851 242.271L79.6702 248.286L87.1383 253.642L90.0106 266.593L103.798 271.86L114.782 271.509V271.041L121.319 279.105L123.33 289.497L103.798 305.403V326.223L111.84 341.457L147.757 378.318V449.038L150.617 462.654L173.861 499.572L187.957 504.99L198.106 511L206.819 505.509L198.058 497.544V494.319L190.816 488.449L195.644 477.25L185.989 474.049L189.145 466.647V461.527L186.617 458.559L182.404 460.613L191.002 456.212L190.236 453.694L180.681 454.999L192.362 453.404L200.657 449.156L201.029 444.701L198.058 441.354L199.965 441.345L208.03 437.355L215.883 409.897V403.007L208.064 406.461L228.17 397.573L235.379 394.522L244.291 374.902V355.916L256.546 338.934V326.078L248.469 323.036L243.177 317.394ZM161.947 96.652L165.988 82.8155L188.825 72.2877L193.415 75.7981L198.901 78.6438L191.404 85.4554V95.0542L181.638 99.1048L170.436 99.4138L152.34 93.5305L161.947 96.652Z" fill="#ADACC2"/>
<path d="M214.119 493.257L206.245 498.48L205.671 502.168L209.5 502.554L217.275 497.242L217.182 492.779L214.119 493.257Z" fill="#ADACC2"/>
<path d="M162.037 37.5554L170.671 41.9451L190.259 41.3292L181.638 36.6085L167.564 34.732V32.7957L150.904 32.8463L159.808 34.9308L159.849 34.9894L159.641 34.9366L150.904 32.8463L160.459 37.629L162.037 37.5554Z" fill="#ADACC2"/>
<path d="M332.859 57.2337L342.885 53.6278L339.636 49.7872L347.481 50.1831V46.8778L343.782 42.1825L343.763 42.1706L351.101 41.6397L357.925 37.0653L355.449 33.4513L357.925 32.1758V29.5872L378.674 20.3337L375.952 15.0252L364.319 15.4066L357.713 15.6232L328.846 15.102L308.404 18.7056L280.244 18.5565L279.298 13.6104L243.202 21.0316L252.489 19.0731L279.298 13.6104L254.404 12L239.851 13.7485L231.33 18.1143L234.872 20.2342L230.372 24.6588L228.362 21.7109L223.862 19.8174L215.34 23.8843V29.274L218.67 31.9847L216.777 33.1127L220.725 35.6306L219.485 35.7177L219.689 35.2741L211.989 30.4013L208.926 30.4998L211.032 32.4709L216.559 35.9231L214.957 36.0355L211.128 34.4095C211.128 34.4095 210.789 34.947 210.314 35.7L209.429 35.1578L209.963 34.4466L205.766 30.6013L200.021 31.2707L202.702 33.562L205.766 35.7364V37.5535L205.78 37.537L208.226 39.0065C207.897 39.5243 207.626 39.9509 207.462 40.2073L202.702 37.3948L200.459 38.1153L197.819 36.5794L194.526 35.8384L194.228 34.0916L185.731 29.2094L175.247 29.5475V31.5815L184.062 36.4062L191.302 36.5005L191.691 38.5191L195.653 40.7514L195.234 40.8579L191.021 45.0362L199.358 49.581L200.648 49.2085L205.949 52.1299L217.925 56.7018L221.731 55.9089L222.809 58.0362L213.234 65.9965L207.284 66.9501L206.436 70.0809L214.304 74.0947L217.44 73.253L224.974 77.2043L231.572 78.8195V74.8265L238.442 74.6265L237.328 68.0014L239.721 66.2142L244.198 68.845L249.954 64.6773L243.027 60.0699L242.283 58.5133L244.755 53.6989L241.97 50.3589L236.333 46.7056L236.028 45.2159L231.438 42.2579L231.851 42.2082L234.822 39.9283L231.002 37.4017L241.32 36.5846V32.8507L252.368 29.6659L249.954 26.1262L253.864 25.2919L252.489 30.1228L258.959 35.0263L272.033 35.7765L271.686 42.5208L268.957 56.4452L264.362 59.0201L265.894 62.7742V71.4951L266.923 77.3118L272.955 81.2009L282.448 82.3602L297.209 67.1865L309.324 64.1055L322.832 57.5353L332.859 57.2337ZM206.673 44.4382L203.144 42.2046L205.904 41.3248L209.501 43.4167L206.673 44.4382ZM210.684 43.04V42.1111L208.67 40.921L213.915 42.5972L210.684 43.04ZM223.819 37.6035L223.827 37.6089L215.727 39.0142L215.704 39.0005L223.819 37.6035ZM209.884 40.0025L209.917 40.0224L207.777 40.3937L207.74 40.3716L209.884 40.0025ZM201.39 48.9945L201.403 48.9908L210.17 52.3025L201.39 48.9945ZM237.813 64.372L237.771 64.3354L243.202 60.4353L237.813 64.372Z" fill="#ADACC2"/>
<path d="M353.835 56.2781L334.59 60.7241V66.2537L338.568 70.4193L349.708 70.0941L359.457 64.3921L357.229 60.6712L353.835 56.2781Z" fill="#ADACC2"/>
<path d="M438.972 30.0413L447.236 32.4797L450.763 25.4229L450.297 20.1829L438.138 20.5748L425.595 22.1617L426.811 27.3443L438.972 30.0413Z" fill="#ADACC2"/>
<path d="M526.894 46.2601L524.505 41.9083L529.304 39.1068L539.702 35.7777L542.022 30.717L520.574 31.3904L514.063 42.2921L512.593 47.0805L525.033 50.968L526.894 46.2601Z" fill="#ADACC2"/>
<path d="M593.177 31.7799L597.171 26.5951L582.234 20.3001L578.693 25.6171L580.179 29.2668L593.177 31.7799Z" fill="#ADACC2"/>
<path d="M611.149 26.1538L603.154 25.2104L598.979 30.4297L597.448 33.9839L606.731 31.3559L611.149 26.1538Z" fill="#ADACC2"/>
<path d="M695.206 40.5995L702.394 35.5571L684.035 33.869L677.404 38.939L690.471 42.9483L695.206 40.5995Z" fill="#ADACC2"/>
<path d="M695.206 45.8429L699.012 48.2285L706.319 43.3597L709.287 39.6089L702.394 40.9212L695.206 45.8429Z" fill="#ADACC2"/>
<path d="M649.251 277.85L647.023 291.661L652.702 292.409L660.745 289.295L655 278.281L649.251 277.85Z" fill="#ADACC2"/>
<path d="M784.83 335.796L791.723 335.315L788.276 322.246L780.234 321.336L770.683 319.94L765.298 335.563L769.798 337.376L777.58 338.341C779.073 338.818 780.527 339.182 780.234 338.67C780.098 337.631 780.183 336.574 780.485 335.571L784.83 335.796Z" fill="#ADACC2"/>
<path d="M726.12 341.112L727.977 346.396L736.192 348.403L744.617 347.712L743.851 343.9L735.405 341.994L726.12 341.112Z" fill="#ADACC2"/>
<path d="M731.979 340.813L731.822 324.555L732.062 325.721L750.63 329.826L759.553 331.452L766.83 322.507L771.042 312.384L767.213 301.961L772.191 296.656L766.83 289.883L757.686 289.199L742.46 301.608L736.147 304.445L733.548 307.231L728.349 307.692L730.862 319.893L721.93 309.95L725.659 309.55L723.936 296.72L714.362 284.409L711.681 279.833L714.553 269.554L714.856 266.776L722.407 275.368V278.903L730.447 279.351L742.128 271.134L742.511 256.451L732.553 244.156V234.109L738.872 229.574L754.191 225.875L758.548 221.13L760.656 228.131L769.894 227.399L771.808 216.284L762.513 217.269L761.996 217.376L764.723 214.405L765.872 208.116V199.079L745.821 166.507L751.702 163.553L751.983 159.517L752.339 159.488L754.06 160.608L751.93 167.2L759.357 168.906L765.298 180.983L774.681 179.157L780.234 176.62L777.745 168.814L769.319 157.796L774.106 148.343L775.255 144.891L780.007 144.779L782.009 156.775L786.837 172.724L783.986 177.951L776.625 179.363L772.911 187.323L776.625 193.748L786.362 192.215L789.808 185.489L796.893 182.465L801.298 176.973L799.766 161.669L794.404 153.518L797.66 152.031L797.277 144.775L791.915 139.052L794.213 126.288L790.574 126.378L784.468 127.589L784.255 126.534L778.702 123.447L769.319 110.388L756.872 99.8416L755.953 95.9225L768.706 94.701L778.195 90.872L779.816 87.7179L787.208 84.713L787.208 96.3154L768.455 106.861L772.911 112.064L782.532 108.636L794.427 102.468L798.72 104.494L809.149 100.879L813.362 90.2645L809.64 83.9644L813.945 82.558L824.851 78.4254L830.213 73.6328L828.398 71.9754L833.851 67.8675L832.128 63.6698L821.787 58.7122L816.042 55.2427L784.909 56.1541L783.6 56.1924L788.688 52.8196C788.786 52.7935 788.851 52.7595 788.851 52.7113C788.851 52.2574 787.989 46.3845 787.989 46.3845L784.112 46.3492L774.443 51.1908L774.322 56.4641L765.872 56.7115L748.541 60.764L746.25 57.2859L736.766 57.5636L706.319 48.6256L688.894 47.7694L677.979 40.5631L661.75 39.0579L634.175 41.8988V36.0088L612.489 31.5942L593.101 35.6341L561.266 49.5864L560.076 52.4672L559.925 52.3091L557.915 49.6874L557.149 46.4325L550.351 44.4545L547.779 49.2151L547.161 51.5897L537.521 50.3019L526.894 53.5962L501.617 53.1653L493.383 60.3365L491.891 61.1757L492.54 59.2978L493.383 54.7971L489.122 52.2053L482.659 49.9781L455.468 46.4594L440.723 48.8813L417.17 68.4949L405.298 73.1684V84.5763L407.129 88.3759L409.357 90.6224L418.641 85.552L423.925 92.5149L422.723 98.264L424.025 101.771L435.352 97.37V91.9752L438.189 86.6353L442.129 84.5078L441.394 80.6034L437.66 77.7526L437.203 76.0639L445.286 71.3049L447.235 67.2465L451.722 66.3503L450.106 67.9286L446.66 69.9028V77.1015L453.936 76.8937L461.213 76.6859L446.66 77.1015L447.235 81.0855L454.498 80.88L444.466 91.9521L428.659 102.338L418.641 102.179V94.7929L417.17 91.1319L407.596 97.2985L409.357 100.82L411.008 103.108L403.574 103.308L392.516 112.116L384.569 99.1853L385.498 91.4761L382.989 87.7572L376.957 84.1957L371.213 88.6752L376.957 102.454L375.533 106.672L374.079 103.118L371.213 99.6651L363.601 96.7338L357.234 107.888L360.524 111.154L369.437 110.919L374.787 108.882L372.745 114.932L375.564 118.051L384.773 117.812L380.787 120.613L372.745 120.82V127.69L375.564 130.529L380.557 131.757L379.542 141.066L361.159 138.77L354.362 141.682L351.106 155.872L352.542 166.815L355.975 168.791L359.825 169.509L356.277 175.16L347.372 180.648L344.213 192.03L329.851 199.967L325.542 208.126L316.638 220.917L312.042 251.501L314.34 260.992L344.213 294.142L361.159 293.898L387.872 287.031L394.191 294.603L408.84 295.279L404.819 316.873L419.181 346.515L415.734 363.676L410.851 384.679L421.479 402.311V417.67L428.659 447.174L434.979 453.947L459.968 449.708L463.989 443.472L489.553 411.614V392.627L513.394 373.128L509.372 339.893L541.83 297.257L552.745 277.145V268.207L530.628 271.979L526.606 268.622V263.566L556.766 252.351L567.681 246.997L582.042 225.857L569.979 214.176L569.737 213.246L589.092 214.736L599.397 214.537L601.31 218.875L610.259 224.635L614.436 231.772L617.5 231.717L620.375 231.34L620.285 241.712L634.768 274.555V281.292L640.064 281.802L643.223 281.755L647.819 276.591L653.564 266.608V254.014L681.229 224.076L682.394 225.053V233.28L690.192 234.903V253.127L697.223 252.985L700.066 251.076L703.561 265.555L701.797 280.781L709.967 294.983L710.683 297.666L704.404 294.182L697.155 293.398L699.94 300.614L708.481 310.111L717.58 331.98L723.893 338.977L731.979 340.813ZM730.447 275.735L718.766 262.663L722.021 266.225L730.447 275.735ZM457.67 183.564L446.468 183.805L432.968 187.495L426.649 179.505L415.574 175.7L417.805 166.139L416.308 164.082L382.989 168.38L364.894 170.26L377.421 168.305L382.156 162.821L395.988 147.845L395.431 143.677L404.158 143.466L413.977 139.217L418.606 148.773L420.034 151.167L431.723 158.86V162.055L432.752 164.162L437.394 162.514V157.116L439.994 159.755L441.479 157.985L440.723 155.736L435.362 150.541L426.649 144.592L422.726 139.702V137.142L426.811 137.042L431.657 140.519L432.968 144.44L433.959 146.935L443.404 152.08V158.434L444.079 160.625L456.148 168.163V163.627L455.851 161.5L454.334 155.567L465.713 155.471V162.952L465.71 165.05L478.057 173.95L479.636 169.663L486.181 174.737L496.346 169.288L490.429 189.598L490.404 189.683L479.787 189.907L465.713 190.204L457.67 183.564ZM531.171 132.724L539.98 126.394L545.922 126.245L545.564 130.009L542.691 131.421L540.352 134.244L543.137 146.404L551.118 150.135L550.159 150.596L547.593 152.996L553.114 165.422L547.287 165.554L540.968 161.231V150.812L531.171 132.724ZM567.763 62.7102L564.043 62.819L565.992 60.0382L568.11 61.773L567.763 62.7102ZM494.149 178.921L490.702 189.677L490.414 189.683L497.308 167.276L494.149 178.921ZM473.415 154.762L470.031 154.673L473.415 153.765V154.762ZM479.357 130.045L501.605 127.513L499.894 130.603L482.659 132.911L482.142 135.678L485.276 138.985L497.739 136.552L507.022 148.345L503.34 148.432L493.574 145.598L478.83 151.09L470.452 146.967L472.673 138.134L479.357 130.045ZM510.113 148.271L498.745 133.798L510.234 148.268L510.113 148.271ZM487.435 63.7036L486.106 66.8793L480.421 62.9616L483.628 63.8153L487.435 63.7036ZM513.753 253.077L503.34 223.856L490.032 203.002L493.283 203.351L507.765 221.608L512.291 233.435L520.02 244.922L524.138 261.552L513.753 253.077ZM539.687 195.973L543.137 194.443L545.922 199.918L550.1 205.076L560.126 208.665L567.368 206.189L568.169 209.17L565.511 210.113L554.411 217.171L554.3 217.355L542.404 201.785L539.687 195.973ZM567.228 209.898L568.199 209.28L568.2 209.285L567.228 209.898ZM625.128 241.318L634.319 261.822L640.064 274.912L625.128 241.318ZM689.181 232.681V224.265L697.223 234.34L689.181 232.681Z" fill="#ADACC2"/>
<path d="M785.596 357.362L793.447 352.645L783.495 350.537L773.654 349.063L775.882 355.148L785.596 357.362Z" fill="#ADACC2"/>
<path d="M789.622 472.753L782.751 480.655L792.68 485.785L803.979 483.749L809.532 478.488L799.091 473.519L789.622 472.753Z" fill="#ADACC2"/>
<path d="M734.104 237.066L732.991 241.015L741.362 240.587L746.34 240.901L746.149 236.682L742.511 236.545L734.104 237.066Z" fill="#ADACC2"/>
<path d="M541.188 360.123L533.11 372.714L521.969 378.484V393.748L514.449 403.687L515.979 406.984L523.734 417.041L528.904 417.009L531.202 404.203L540.106 387.471L545.564 378.197L543.553 362.434L541.188 360.123Z" fill="#ADACC2"/>
<path d="M150.617 233.106L157.223 236.175L172.16 235.899L181.068 236.331L160.18 230.612L141.82 218.342L124.808 215.844L114.138 214.977L108.968 217.973L117.298 218.677L127.926 225.709L140.564 227.785L144.872 233.793L150.617 233.106Z" fill="#ADACC2"/>
<path d="M780.234 251.396L773.34 242.245L763.998 242.64L764.927 255.621L769.197 259.884L778.702 259.886L780.234 251.396Z" fill="#ADACC2"/>
<path d="M781.168 267.204L782.012 271.22L774.767 271.025L778.667 279.636L786.381 279.835L784.262 283.508L778.296 283.189L774.767 285.605L783.518 286.369L786.093 292.144L796.127 292.896L800.148 286.785L797.085 279.162L788.907 278.805L789.817 276.129L791.915 276.011L794.404 272.746L790.957 266.95L781.893 266.8L787.702 263.573L780.234 260.063L770.683 260.056V267.542L780.234 267.722L781.168 267.204Z" fill="#ADACC2"/>
<path d="M811.638 316.712L811.447 310.857L800.948 309.699L797.606 309.94L797.42 315.861L807.808 317.163L811.638 316.712Z" fill="#ADACC2"/>
<path d="M784.255 312.215L774.582 311.026L772.355 315.191L781.957 316.477L790.756 315.79L784.255 312.215Z" fill="#ADACC2"/>
<path d="M828.489 323.375L819.371 322.181L818.34 320.063L807.633 318.695L809.118 333.882L814.497 334.743L815.802 336.769L814.874 343.101L812.646 346.878L823.415 350.52L832.369 352.206L832.327 352.999L843.809 355.167L855.681 357.276L844.029 337.162L851.452 339.341L857.338 340.235L857.394 342.445L869.66 344.368L874.447 343.1L869.468 336.869L862.754 335.91L862.192 332.087L850.152 330.445L843.85 336.852L842.277 334.137L828.489 323.375ZM825.736 345.013L825.768 344.814L825.809 345.037L823.511 348.902L825.736 345.013Z" fill="#ADACC2"/>
<path d="M839.787 410.038L837.873 393.866L832.319 389.257L832.128 358.721L821.002 356.474L811.268 375.903L810.681 375.29L816.234 364.331L805.59 361.957L797.049 364.21L788.287 371.311L780.71 369.291L750.444 387.863L726.677 405.338L725.007 439.72L721.107 443.665V446.61L729.106 450.933L780.144 440.777L779.781 450.11L788.486 453.945L788.322 462.107L795.649 466.228L806.085 471.026L823.702 462.086L837.106 431.904L839.787 410.038Z" fill="#ADACC2"/>
<path d="M869.851 448.157L857.579 443.864L849.781 461.121L825.643 485.118L829.914 489.66L841.319 495.015L873.49 456.659L869.851 454.441V448.157Z" fill="#ADACC2"/>
<path d="M876.362 394.186L863.893 391.123L862.407 396.882L874.829 400.077L880 400.446L876.362 394.186Z" fill="#ADACC2"/>
<path d="M202.702 33.5622L207.872 37.2314L209.963 34.447L205.766 30.6009L202.702 33.5622Z" fill="#2E314F"/>
<path d="M791.915 276.011L783.124 276.504L781.081 266.788L790.957 266.95L791.915 276.011Z" fill="#A3ADB5"/>
<path d="M186.163 31.2306L194.647 36.5442L194.228 34.092L185.732 29.2093L186.163 31.2306Z" fill="#4AA0BC"/>
<path d="M175.248 31.5811L184.063 36.4063L194.647 36.5442L186.163 31.2307L175.248 31.5811Z" fill="url(#paint0_linear_7_818)"/>
<path d="M197.819 36.5798L205.949 41.3108L200.007 43.2046L191.691 38.5196L197.819 36.5798Z" fill="#2E314F"/>
<path d="M145.447 171.727L155.167 173.529V165.017L145.447 163.029V171.727Z" fill="#547085"/>
<path d="M145.447 163.029L155.167 165.017L168.257 152.784L158.947 150.523L145.447 163.029Z" fill="#46687D"/>
<path d="M145.447 171.727L155.167 173.529L144.305 176.894L134.245 175.17L145.447 171.727Z" fill="#41677B"/>
<path d="M144.305 176.894L136.506 183.588L129.936 178.453L134.245 175.17L144.305 176.894Z" fill="#446278"/>
<path d="M126.202 182.012L134.556 190.148L136.506 183.588L129.936 178.453L126.202 182.012Z" fill="#547085"/>
<path d="M124.191 202.906L134.556 204.033L132.05 208.618L121.606 207.591L124.191 202.906Z" fill="#5C7489"/>
<path d="M124.191 202.906V188.716L134.556 190.148V204.033L124.191 202.906Z" fill="#4E6B8C"/>
<path d="M134.556 190.148L124.191 188.716L126.202 182.012L134.556 190.148Z" fill="#76829E"/>
<path d="M96.9042 193.066L108.097 194.395L111.719 190.64L100.638 189.226L96.9042 193.066Z" fill="url(#paint1_linear_7_818)"/>
<path d="M111.719 190.64L116.723 190.532V188.878L100.638 189.226L111.719 190.64Z" fill="#2E3640"/>
<path d="M88.8801 202.997L77.0851 201.86L84.2659 193.336L95.8426 194.656L88.8801 202.997Z" fill="#415464"/>
<path d="M99.3101 193.351L96.9042 193.066L90.0106 191.19L84.2659 193.336L95.8426 194.656L99.3101 193.351Z" fill="#30444F"/>
<path d="M74.5 222.404L86.3731 223.103L88.8801 202.998L77.0851 201.86L74.5 222.404Z" fill="#617488"/>
<path d="M86.3731 223.103L88.1781 226.22L85.9894 231.134L79.6702 231.253L74.5 222.404L86.3731 223.103Z" fill="#666F87"/>
<path d="M100.638 221.896L111.719 222.611L101.414 240.623L90.0106 240.303L100.638 221.896Z" fill="url(#paint2_linear_7_818)"/>
<path d="M103.798 245.546L114.782 245.758L101.414 240.623L90.0106 240.303L103.798 245.546Z" fill="#838BA8"/>
<path d="M114.782 245.758L103.798 245.546L97.7659 257.504L108.934 257.459L114.782 245.758Z" fill="url(#paint3_linear_7_818)"/>
<path d="M114.782 271.51L103.798 271.86V269.402L114.782 269.103V271.51Z" fill="#617488"/>
<path d="M97.7659 257.504L108.934 257.459L114.782 269.103L103.798 269.402L97.7659 257.504Z" fill="url(#paint4_linear_7_818)"/>
<path d="M114.138 214.977L124.808 215.844L141.82 218.342L131.683 217.525L114.138 214.977Z" fill="#228187"/>
<path d="M131.683 217.525L150.617 230.061L160.18 230.612L141.82 218.342L131.683 217.525Z" fill="#7397A9"/>
<path d="M150.617 230.061L160.18 230.612L181.068 236.331L172.16 235.899L163.255 233.741L150.617 230.061Z" fill="#98AFC9"/>
<path d="M124.191 233.888L134.556 234.353L141.82 235.635L131.683 235.197L124.191 233.888Z" fill="#4E6B8C"/>
<path d="M124.191 236.784L131.683 235.197L141.82 235.635L134.556 237.186L124.191 236.784Z" fill="#617488"/>
<path d="M145.16 261.044L155.384 260.668L163.132 256.535L153.495 256.7L145.16 261.044Z" fill="#BDB9D3"/>
<path d="M159.566 260.512L168.858 260.414L170.596 263.752L161.532 264.254L159.566 260.512Z" fill="#BDB9D3"/>
<path d="M176.491 263.425L185.268 263.266L188.031 270.044L179.34 270.354L176.491 263.425Z" fill="#BDB9D3"/>
<path d="M179.34 270.354L188.031 270.044L193.323 272.236L184.798 272.591L179.34 270.354Z" fill="#B7BEE1"/>
<path d="M184.798 272.591L193.323 272.236L195.551 277.606L187.096 278.079L184.798 272.591Z" fill="#D9CED9"/>
<path d="M187.096 278.079L195.551 277.606L201.678 279.503L193.415 280.017L187.096 278.079Z" fill="#7780B1"/>
<path d="M193.415 280.017L201.678 279.503L211.956 286.464L204.015 287.131L193.415 280.017Z" fill="#BDB9D3"/>
<path d="M204.015 287.131L211.956 286.464L215.882 298.942L208.064 299.883L204.015 287.131Z" fill="#7780B1"/>
<path d="M208.064 299.883L215.882 298.942L211.956 304.409L204.015 305.472L208.064 299.883Z" fill="url(#paint5_linear_7_818)"/>
<path d="M204.015 305.472L211.956 304.409L221.732 305.985L214.096 307.081L204.015 305.472Z" fill="#B7BEE1"/>
<path d="M214.096 307.081L221.732 305.985L228.973 311.589L221.564 312.808L214.096 307.081Z" fill="#93A1AC"/>
<path d="M221.564 312.808L222.569 316.001L229.948 314.713L228.973 311.589L221.564 312.808Z" fill="#7871A3"/>
<path d="M222.569 316.001L229.948 314.713L243.176 317.394L236.213 318.741L222.569 316.001Z" fill="#D9CED9"/>
<path d="M236.213 318.741L241.67 324.508L248.468 323.036L243.176 317.394L236.213 318.741Z" fill="#82A0B9"/>
<path d="M241.67 324.508L248.468 323.036L256.545 326.078L250 327.617L241.67 324.508Z" fill="#9EA2BE"/>
<path d="M250 327.617V340.757L256.545 338.933V326.078L250 327.617Z" fill="#53698B"/>
<path d="M237.362 358.115L244.291 355.916L256.545 338.933L250 340.757L237.362 358.115Z" fill="url(#paint6_linear_7_818)"/>
<path d="M237.362 358.115L244.291 355.916V374.902L237.362 377.52V358.115Z" fill="url(#paint7_linear_7_818)"/>
<path d="M228.17 397.572L235.379 394.522L244.291 374.902L237.362 377.52L228.17 397.572Z" fill="#445F7D"/>
<path d="M215.882 409.898V403.008L208.064 406.461V413.284L215.882 409.898Z" fill="url(#paint8_linear_7_818)"/>
<path d="M199.965 441.345L208.029 437.355L215.882 409.898L208.064 413.284L199.965 441.345Z" fill="#445F7D"/>
<path d="M192.361 453.404L200.657 449.155L201.029 444.7L192.745 448.851L192.361 453.404Z" fill="#436B82"/>
<path d="M192.745 448.851L201.029 444.7L198.058 441.354L186.617 441.407L192.745 448.851Z" fill="url(#paint9_linear_7_818)"/>
<path d="M182.405 460.612L191.002 456.212L190.236 453.694L180.681 454.999L182.405 460.612Z" fill="url(#paint10_linear_7_818)"/>
<path d="M180.489 466.045L189.145 461.527L186.617 458.559L182.405 460.612L175.894 460.634L180.489 466.045Z" fill="url(#paint11_linear_7_818)"/>
<path d="M180.489 466.045L189.145 461.527V466.646L180.489 471.276V466.045Z" fill="#496078"/>
<path d="M177.234 478.841L185.989 474.049L189.145 466.646L180.489 471.276L177.234 478.841Z" fill="url(#paint12_linear_7_818)"/>
<path d="M177.234 478.841L187.191 482.115L195.644 477.25L185.989 474.049L177.234 478.841Z" fill="url(#paint13_linear_7_818)"/>
<path d="M182.213 493.559L190.816 488.449L195.644 477.25L187.191 482.115L182.213 493.559Z" fill="url(#paint14_linear_7_818)"/>
<path d="M189.681 499.561L198.058 494.32L190.816 488.449L182.213 493.559L189.681 499.561Z" fill="url(#paint15_linear_7_818)"/>
<path d="M189.681 502.856L198.058 497.544V494.319L189.681 499.561V502.856Z" fill="#294864"/>
<path d="M198.106 511L206.82 505.51L198.058 497.544L189.681 502.856L198.106 511Z" fill="url(#paint16_linear_7_818)"/>
<path d="M209.405 497.992L217.182 492.779L217.275 497.242L209.5 502.554L209.405 497.992Z" fill="url(#paint17_linear_7_818)"/>
<path d="M206.245 498.48L214.119 493.257L217.182 492.779L209.405 497.992L206.245 498.48Z" fill="#5B5B81"/>
<path d="M188.245 139.636L196.665 142.143L215.325 134.56L207.489 131.878L188.245 139.636Z" fill="url(#paint18_linear_7_818)"/>
<path d="M158.947 150.523L168.257 152.784L191.979 140.747L188.245 139.636L191.979 133.58L158.947 150.523Z" fill="url(#paint19_linear_7_818)"/>
<path d="M207.805 117.806L199.734 114.758L188.245 125.968L215.325 134.56L207.805 117.806Z" fill="url(#paint20_linear_7_818)"/>
<path d="M218.404 117.614L225.909 120.609L207.805 117.806L199.734 114.758L218.404 117.614Z" fill="url(#paint21_linear_7_818)"/>
<path d="M229.319 110.328L236.493 113.485L225.909 120.609L218.404 117.614L229.319 110.328Z" fill="#41616F"/>
<path d="M238.442 106.3L231.33 102.984L229.319 110.328L236.493 113.485L238.442 106.3Z" fill="#767DA7"/>
<path d="M231.758 97.6387L224.436 94.135L231.33 102.984L238.442 106.3L231.758 97.6387Z" fill="#456171"/>
<path d="M232.036 86.7921L224.723 83.0493L224.436 94.135L231.758 97.6387L232.036 86.7921Z" fill="url(#paint22_linear_7_818)"/>
<path d="M213.808 78.9906L221.452 82.8161L221.311 84.0755L212.947 86.5898L213.808 78.9906Z" fill="#343343"/>
<path d="M224.244 74.8998L231.572 78.8194V74.8262L224.244 70.8192V74.8998Z" fill="#1E1D2D"/>
<path d="M224.974 77.2037L217.439 73.2531L224.244 74.8997L231.572 78.8194L224.974 77.2037Z" fill="#343941"/>
<path d="M206.436 70.0803L214.305 74.0942L217.439 73.253L213.521 68.3187L206.436 70.0803Z" fill="#0E2D43"/>
<path d="M7 100.187L20.9228 103.456L55.3553 87.6068L46.6383 82.0887L7 100.187Z" fill="#5A8E95"/>
<path d="M156.218 79.2032L165.988 82.8149L161.948 96.6516L152.34 93.5305L156.218 79.2032Z" fill="url(#paint23_linear_7_818)"/>
<path d="M182.308 67.304L188.826 72.2866L165.987 82.8149L156.218 79.2032L170.723 72.3924L182.308 67.304Z" fill="url(#paint24_linear_7_818)"/>
<path d="M170.436 99.4141L177.915 102.29L172.16 107.21L170.436 99.4141Z" fill="#6E5D73"/>
<path d="M167.564 41.7015L176.612 46.3049V53.6926L167.564 49.2374V41.7015Z" fill="#717689"/>
<path d="M167.564 49.2375L176.612 53.6926L156.218 52.216L167.564 49.2375Z" fill="#333D48"/>
<path d="M156.218 52.216L176.612 53.6926L164.117 53.7145L156.218 52.216Z" fill="#333D48"/>
<path d="M181.638 36.6086L190.259 41.3292L170.671 41.9451L161.437 37.2498L181.638 36.6086Z" fill="url(#paint25_linear_7_818)"/>
<path d="M150.904 32.8463L160.459 37.629L168.761 37.2417L159.641 34.9366L150.904 32.8463Z" fill="#2E314F"/>
<path d="M195.234 40.858L199.357 39.81L205.949 41.3108L202.894 42.0462L195.234 40.858Z" fill="#2E2E34"/>
<path d="M191.022 45.0362L199.357 49.581L209.963 46.5198L202.894 42.0462L191.022 45.0362Z" fill="url(#paint26_linear_7_818)"/>
<path d="M197.819 47.6494L205.949 52.1298L217.925 56.7022L210.17 52.3022L197.819 47.6494Z" fill="#333D48"/>
<path d="M210.17 52.3022L217.925 56.7022L224.244 55.3853L218.979 50.4785L210.17 52.3022Z" fill="#405162"/>
<path d="M188.245 43.7653L196.665 48.3365L197.129 55.1509L188.724 50.7302L188.245 43.7653Z" fill="#353C4C"/>
<path d="M188.724 50.7302L197.129 55.1509L196.239 59.4704L187.288 56.7838L188.724 50.7302Z" fill="#2B3747"/>
<path d="M237.841 49.2168L244.755 53.6984L241.877 59.3049L234.872 54.9486L237.841 49.2168Z" fill="#2E3252"/>
<path d="M234.872 54.9486L243.202 60.4357L249.954 64.6771L241.877 59.3049L234.872 54.9486Z" fill="#1F3942"/>
<path d="M252.49 30.1229L258.959 35.0262L279.298 36.1937L272.261 31.3409L252.49 30.1229Z" fill="#374A61"/>
<path d="M245.691 24.6484L252.368 29.6655L241.32 32.8509L234.297 27.9097L245.691 24.6484Z" fill="url(#paint27_linear_7_818)"/>
<path d="M243.202 21.031L249.954 26.1262L252.368 29.6655L245.691 24.6484L243.202 21.031Z" fill="#1E1D2D"/>
<path d="M243.202 21.031L249.954 26.1262L280.447 19.6199L279.298 13.6099L243.202 21.031Z" fill="url(#paint28_linear_7_818)"/>
<path d="M234.297 31.7271L241.32 36.5844V32.8509L234.297 27.9097V31.7271Z" fill="#2E314F"/>
<path d="M216.776 33.1129L224.33 37.93L241.32 36.5844L234.297 31.7271L216.776 33.1129Z" fill="#324957"/>
<path d="M215.34 29.2737L221.252 34.0874L223.67 29.0059L215.34 29.2737Z" fill="#2E314F"/>
<path d="M211.99 30.401L219.689 35.2744L218.76 37.298L211.031 32.4705L211.99 30.401Z" fill="#2A6982"/>
<path d="M208.351 34.4976L216.162 39.2803L213.655 42.268L205.78 37.537L208.351 34.4976Z" fill="#2D2E3E"/>
<path d="M202.702 37.3946L210.683 42.1106V44.1043L202.653 39.4343L202.702 37.3946Z" fill="#1E1D2D"/>
<path d="M207.286 40.4788L217.925 43.8791L231.85 42.2082L224.533 37.4865L207.286 40.4788Z" fill="#303743"/>
<path d="M224.533 37.4865L231.85 42.2082L234.821 39.9284L227.596 35.148L224.533 37.4865Z" fill="#314052"/>
<path d="M210.17 55.4577L217.925 59.7887L210.963 65.0782L202.989 60.8678L210.17 55.4577Z" fill="#838E97"/>
<path d="M189.681 63.1097L198.058 67.265L210.963 65.0782L202.989 60.8678L189.681 63.1097Z" fill="url(#paint29_linear_7_818)"/>
<path d="M189.681 63.1097L198.058 67.2649L209.189 78.5666L200.404 73.8483L189.681 63.1097Z" fill="#1F323C"/>
<path d="M200.404 73.8483L209.189 78.5666L204.796 81.7014L193.415 75.7984L200.404 73.8483Z" fill="#73787F"/>
<path d="M224.244 70.8192L231.572 74.8262L238.442 74.6263L231.33 70.6112L224.244 70.8192Z" fill="#3F577D"/>
<path d="M230.181 63.8405L231.33 70.6112L238.442 74.6263L237.328 68.0015L230.181 63.8405Z" fill="#354056"/>
<path d="M230.181 63.8405L237.328 68.0015L239.814 66.1445L234.01 61.0034L230.181 63.8405Z" fill="#333D48"/>
<path d="M237.266 64.7714L244.198 68.845L249.954 64.6771L243.202 60.4357L237.266 64.7714Z" fill="#6A7A90"/>
<path d="M228.793 40.5535L236.029 45.2155L236.529 47.6585L229.798 45.1879L228.793 40.5535Z" fill="#5D5B74"/>
<path d="M234.997 45.8395L241.97 50.359L244.755 53.6984L237.841 49.2168L234.997 45.8395Z" fill="#406086"/>
<path d="M266.923 77.3118L272.955 81.2004L282.447 82.3599L276.713 78.4919L266.923 77.3118Z" fill="#1A3144"/>
<path d="M276.713 78.4919L282.447 82.3599L297.209 67.1868L291.936 62.973L276.713 78.4919Z" fill="#5A7D85"/>
<path d="M309.324 64.106L304.431 59.8163L291.936 62.973L297.209 67.1868L309.324 64.106Z" fill="#416872"/>
<path d="M318.362 53.0928L322.832 57.5353L309.324 64.106L304.431 59.8163L318.362 53.0928Z" fill="#597084"/>
<path d="M332.859 57.2331L328.702 52.7779L318.362 53.0928L322.832 57.5353L332.859 57.2331Z" fill="url(#paint30_linear_7_818)"/>
<path d="M342.885 53.6283L339.043 49.0858L328.702 52.7779L332.859 57.2331L342.885 53.6283Z" fill="#9D94A1"/>
<path d="M347.48 50.1832L343.782 45.5614L326.883 46.0831L330.761 49.3397L347.48 50.1832Z" fill="url(#paint31_linear_7_818)"/>
<path d="M343.782 42.183L347.48 46.8783V50.1832L343.782 45.5614V42.183Z" fill="#8F89A4"/>
<path d="M347.516 36.8246L351.102 41.6394L337.181 42.6472L336.601 37.7554L347.516 36.8246Z" fill="url(#paint32_linear_7_818)"/>
<path d="M354.553 32.1442L357.925 37.0648L351.102 41.6394L347.516 36.8246L354.553 32.1442Z" fill="#4A5973"/>
<path d="M357.925 32.1752L354.553 27.1455L350.963 28.8289L354.444 33.969L357.925 32.1752Z" fill="#425978"/>
<path d="M354.553 24.4991L357.925 29.5874V32.1752L354.553 27.1455V24.4991Z" fill="#34475D"/>
<path d="M378.674 20.3335L375.952 15.0257L354.553 24.4991L357.925 29.5874L378.674 20.3335Z" fill="#617280"/>
<path d="M356.133 60.0806L359.457 64.3921L349.708 70.0941L346.08 65.9159L356.133 60.0806Z" fill="#545671"/>
<path d="M334.59 66.2537L338.568 70.4193L349.708 70.0941L346.08 65.9159L334.59 66.2537Z" fill="#2E425F"/>
<path d="M353.835 56.2781L357.229 60.6712L359.457 64.3921L356.133 60.0806L353.835 56.2781Z" fill="#024243"/>
<path d="M382.989 87.7573L385.497 91.4759L384.569 99.1854L382.032 95.6392L382.989 87.7573Z" fill="#6B8B92"/>
<path d="M391.319 110.613L394.203 114.862L384.569 99.1854L382.032 95.6392L391.319 110.613Z" fill="#565989"/>
<path d="M357.234 107.888L360.524 111.155L369.436 110.918L366.425 107.643L357.234 107.888Z" fill="#7A7E7E"/>
<path d="M372.744 104.53L376.215 108.338L369.437 110.918L366.425 107.643L372.744 104.53Z" fill="#8F96BE"/>
<path d="M371.213 99.6646L374.078 103.118L376.215 108.338L372.744 104.53L371.213 99.6646Z" fill="#43585E"/>
<path d="M372.744 114.932L375.564 118.052L386.772 117.76L385.766 114.592L372.744 114.932Z" fill="url(#paint33_linear_7_818)"/>
<path d="M391.319 110.613L393.508 113.838L386.772 117.76L385.766 114.592L391.319 110.613Z" fill="#1A1D1F"/>
<path d="M372.744 127.689L375.564 130.529L382.569 132.25L380.787 129.646L372.744 127.689Z" fill="#65627D"/>
<path d="M393.809 145.385L395.988 147.845L395.431 143.677L393.234 141.124L393.809 145.385Z" fill="#1E3244"/>
<path d="M402.234 140.904L404.158 143.466L395.431 143.677L393.234 141.124L402.234 140.904Z" fill="#2E313F"/>
<path d="M382.155 162.821L377.724 159.367L393.809 145.385L395.988 147.845L382.155 162.821Z" fill="#495F61"/>
<path d="M374.66 166.31L379.543 160.702L382.155 162.821L377.42 168.305L374.66 166.31Z" fill="#416872"/>
<path d="M363.457 168.233L374.66 166.31L377.42 168.305L364.894 170.26L363.457 168.233Z" fill="#363839"/>
<path d="M352.543 166.815L355.976 168.791L361.083 169.743L360.585 168.298L352.543 166.815Z" fill="#416872"/>
<path d="M402.234 140.904L404.158 143.466L414.822 138.851L412.574 136.323L402.234 140.904Z" fill="#32404F"/>
<path d="M407.596 122.872L409.357 125.831L414.822 138.851L412.574 136.323L407.596 122.872Z" fill="#2E313F"/>
<path d="M422.725 137.142L421.383 134.431L407.596 122.872L409.357 125.831L422.725 137.142Z" fill="#1A1D1F"/>
<path d="M425.595 134.327L426.811 137.041L422.725 137.142L421.383 134.431L425.595 134.327Z" fill="#1A1D1F"/>
<path d="M421.383 134.431L422.725 137.142V140.403L421.574 138.266L421.383 134.431Z" fill="#363839"/>
<path d="M426.811 137.041L425.595 134.327L430.957 138.429L432.968 141.461L426.811 137.041Z" fill="#1D1F2E"/>
<path d="M432.968 144.439L433.96 146.935L445.08 152.993L443.404 149.955L432.968 144.439Z" fill="#61778F"/>
<path d="M418.606 148.773L420.033 151.167L432.752 159.538L431.724 157.327L418.606 148.773Z" fill="#38374F"/>
<path d="M431.724 162.055L432.752 164.162L437.394 162.514L436.51 160.368L431.724 162.055Z" fill="#474958"/>
<path d="M440.723 155.736L441.479 157.985L439.994 159.755L439.192 157.546L440.723 155.736Z" fill="#65627D"/>
<path d="M436.51 154.849L437.394 157.116L439.994 159.755L439.192 157.546L436.51 154.849Z" fill="#192633"/>
<path d="M436.51 160.368L437.394 162.514V157.116L436.51 154.849V160.368Z" fill="#686A8C"/>
<path d="M416.308 164.082L417.806 166.139L415.299 176.879L413.723 175.063L416.308 164.082Z" fill="#65728C"/>
<path d="M443.404 158.434L444.078 160.625L456.148 168.163L455.851 166.138L443.404 158.434Z" fill="#282C39"/>
<path d="M453.744 153.261L454.105 155.57L454.246 160.55L453.936 159.966L453.744 153.261Z" fill="#1A1D1F"/>
<path d="M455.851 161.5L456.148 163.627V168.163L455.851 166.138V161.5Z" fill="#9CA2A0"/>
<path d="M453.744 153.261L467.149 153.144L467.103 155.458L454.105 155.57L453.744 153.261Z" fill="#192633"/>
<path d="M473.66 151.41L467.149 153.144L467.103 155.458L473.415 153.765L473.66 151.41Z" fill="#1A1D1F"/>
<path d="M473.415 153.765V155.021L473.66 154.769V151.41L473.415 153.765Z" fill="#363839"/>
<path d="M465.713 162.953L465.709 165.05L478.057 173.95L478.446 172.049L465.713 162.953Z" fill="#474958"/>
<path d="M480.074 167.664L479.636 169.662L478.057 173.95L478.446 172.049L480.074 167.664Z" fill="#9CA2A0"/>
<path d="M486.181 174.737L486.824 172.851L480.074 167.664L479.635 169.662L486.181 174.737Z" fill="#686A8C"/>
<path d="M497.308 167.276L496.347 169.288L486.181 174.737L486.824 172.851L497.308 167.276Z" fill="#282C39"/>
<path d="M497.308 167.276L496.347 169.288L490.43 189.598L490.23 190.282L497.308 167.276Z" fill="#252B2F"/>
<path d="M472.894 135.425L472.673 138.134L470.259 147.735L470.021 146.755L472.894 135.425Z" fill="#38273F"/>
<path d="M472.673 138.134L472.894 135.425L479.787 127.151L479.357 130.045L472.673 138.134Z" fill="#29525C"/>
<path d="M503.34 124.38V127.316L479.358 130.045L479.787 127.151L503.34 124.38Z" fill="url(#paint34_linear_7_818)"/>
<path d="M482.66 132.911L482.143 135.678L485.276 138.985L485.89 136.291L482.66 132.911Z" fill="#474958"/>
<path d="M498.745 133.798L497.739 136.552L485.276 138.985L485.89 136.291L498.745 133.798Z" fill="#38374F"/>
<path d="M497.739 136.552L498.745 133.798L510.771 149.108L507.626 149.113L497.739 136.552Z" fill="#282C39"/>
<path d="M425.595 22.1617L426.811 27.3443L438.972 30.0413L438.138 24.9116L425.595 22.1617Z" fill="#627C85"/>
<path d="M446.66 27.4006L447.236 32.4797L438.972 30.0413L438.138 24.9116L446.66 27.4006Z" fill="#798A98"/>
<path d="M450.297 20.1829L450.763 25.4229L447.236 32.4797L446.66 27.4006L450.297 20.1829Z" fill="#8595B0"/>
<path d="M405.298 84.5765L407.128 88.3755L409.357 90.6221L407.596 86.8725L405.298 84.5765Z" fill="#476F95"/>
<path d="M417.17 81.683L418.641 85.5522L409.357 90.6221L407.596 86.8725L417.17 81.683Z" fill="url(#paint35_linear_7_818)"/>
<path d="M424.026 101.771L422.723 98.2638L434.404 93.7592L435.352 97.3698L424.026 101.771Z" fill="url(#paint36_linear_7_818)"/>
<path d="M434.404 84.349L435.352 88.1675V97.3698L434.404 93.7592V84.349Z" fill="#5D4A64"/>
<path d="M441.393 80.6029L442.129 84.5076L435.352 88.1676L434.404 84.349L441.393 80.6029Z" fill="#535658"/>
<path d="M444.649 67.1018L445.286 71.3053L437.023 76.1695L436.128 72.0809L444.649 67.1018Z" fill="#495F61"/>
<path d="M417.17 81.683L418.641 85.5522L425.511 94.6038L424.256 90.9358L417.17 81.683Z" fill="#54577F"/>
<path d="M446.66 62.95L447.236 67.2466L445.286 71.3053L444.649 67.1018L446.66 62.95Z" fill="#3E363E"/>
<path d="M452.787 61.7342L453.177 66.0595L447.236 67.2466L446.66 62.95L452.787 61.7342Z" fill="#242731"/>
<path d="M455.468 62.6903L455.776 66.9972L453.177 66.0595L452.787 61.7342L455.468 62.6903Z" fill="#1A1D1F"/>
<path d="M484.191 59.4221L483.628 63.8153L476.23 61.8457L474.425 57.3893L484.191 59.4221Z" fill="#363839"/>
<path d="M491.851 59.1946L491.055 63.5969L483.628 63.8153L484.191 59.4222L491.851 59.1946Z" fill="#1D232A"/>
<path d="M493.383 54.7969L492.54 59.2981L491.055 63.5969L491.851 59.1946L493.383 54.7969Z" fill="#272C38"/>
<path d="M446.66 77.1015L447.236 81.0855L464.491 80.5971L464.922 79.1469L461.212 76.6855L446.66 77.1015Z" fill="url(#paint37_linear_7_818)"/>
<path d="M417.17 91.1323L418.641 94.7934V103.099L417.17 102.155V91.1323Z" fill="url(#paint38_linear_7_818)"/>
<path d="M407.596 97.2985L409.357 100.819L412.262 104.846L411.808 103.087L407.596 97.2985Z" fill="#16202A"/>
<path d="M514.063 42.2921L512.593 47.0805L525.033 50.968L526.894 46.26L514.063 42.2921Z" fill="#7E8D9D"/>
<path d="M542.022 30.717L539.702 35.7777L529.304 39.1068L531.297 34.1276L542.022 30.717Z" fill="#687B93"/>
<path d="M523.255 39.6308V42.638L529.304 39.1068L531.297 34.1276L523.255 39.6308Z" fill="#596E96"/>
<path d="M582.234 20.3001L578.693 25.6172L580.179 29.2668L583.766 24.0325L582.234 20.3001Z" fill="#DCD4D6"/>
<path d="M597.171 26.5951L593.177 31.7799L580.179 29.2668L583.766 24.0325L597.171 26.5951Z" fill="#6F7892"/>
<path d="M601.574 28.8462L597.448 33.984L606.731 31.3559L611.149 26.1538L601.574 28.8462Z" fill="url(#paint39_linear_7_818)"/>
<path d="M603.154 25.2104L598.979 30.4297L597.448 33.9839L601.574 28.8462L603.154 25.2104Z" fill="#DDD5D8"/>
<path d="M561.266 49.5868L559.234 54.5039L568.111 61.7733L567.409 63.6647L569.309 62.665L571.32 57.2871L561.266 49.5868Z" fill="url(#paint40_linear_7_818)"/>
<path d="M548.436 51.7598L545.922 56.3574L547.779 49.2156L550.351 44.4548L548.436 51.7598Z" fill="#C1B3D4"/>
<path d="M684.035 33.869L677.404 38.939L690.471 42.9483L697.511 37.9634L684.035 33.869Z" fill="url(#paint41_linear_7_818)"/>
<path d="M702.394 35.5571L695.206 40.5995L690.471 42.9483L697.511 37.9634L702.394 35.5571Z" fill="#9CA2A0"/>
<path d="M702.394 40.9212L695.206 45.8429L699.012 48.2285L706.319 43.3597L702.394 40.9212Z" fill="#7A9995"/>
<path d="M784.112 46.3497L774.443 51.191L774.303 57.2538L783.968 52.5527L784.112 46.3497Z" fill="#FFFAFE"/>
<path d="M788.851 52.7113L780.102 58.512L774.303 57.2537L783.968 52.5527L788.851 52.7113Z" fill="#231F36"/>
<path d="M778.196 90.8715L768.706 94.7015L753.787 96.1299L754.575 90.0429L765.991 91.5414L778.196 90.8715Z" fill="#2E5164"/>
<path d="M788.918 84.0181L779.103 88.0078L772.911 86.4519L773.859 82.669L782.532 82.43L788.918 84.0181Z" fill="url(#paint42_linear_7_818)"/>
<path d="M797.276 80.6109L787.208 84.7133L789.204 79.4158L797.276 80.6109Z" fill="url(#paint43_linear_7_818)"/>
<path d="M787.208 96.3149L797.276 92.5147V80.6109L787.208 84.7133V96.3149Z" fill="#938F90"/>
<path d="M768.455 106.86L777.936 103.313L797.276 92.5147L787.208 96.3149L768.455 106.86Z" fill="#B3AEB3"/>
<path d="M772.911 112.064L782.532 108.636L777.936 103.313L768.455 106.86L772.911 112.064Z" fill="#A3ADB8"/>
<path d="M798.72 104.493L809.149 100.879L803.021 98.0121L792.778 101.691L798.72 104.493Z" fill="#707B90"/>
<path d="M813.945 82.5575L824.851 78.4253L809.34 83.4573L809.149 84.1249L813.945 82.5575Z" fill="#9CA2A0"/>
<path d="M751.93 167.2L739.859 169.503L741.955 160.221L749.595 154.548L752.339 159.487L751.93 167.2Z" fill="url(#paint44_linear_7_818)"/>
<path d="M760.894 165.058L751.93 167.2L752.339 159.487L763 159.474L760.894 165.058Z" fill="#1D2733"/>
<path d="M759.357 168.905L768.553 166.801L760.894 165.058L751.93 167.2L759.357 168.905Z" fill="url(#paint45_linear_7_818)"/>
<path d="M765.298 180.984L774.681 179.157L768.553 166.801L759.357 168.905L765.298 180.984Z" fill="#97989B"/>
<path d="M776.624 193.748L786.361 192.215L782.532 185.641L772.911 187.322L776.624 193.748Z" fill="#6A7A8C"/>
<path d="M786.361 177.496L776.624 179.363L772.911 187.322L782.532 185.641L786.361 177.496Z" fill="#BFBEC2"/>
<path d="M796.894 170.699L786.837 172.724L782.532 180.617L793.255 176.138L796.894 170.699Z" fill="#B4B2CE"/>
<path d="M786.837 172.724L796.894 170.699L791.915 154.381L782.009 156.775L786.837 172.724Z" fill="#AAAEB5"/>
<path d="M789.617 140.721L779.903 144.155L782.009 156.775L791.915 154.381L789.617 140.721Z" fill="#B1AEB4"/>
<path d="M790.574 126.378L781.144 128.249L779.903 144.155L789.617 140.721L790.574 126.378Z" fill="#5D5F6F"/>
<path d="M494.149 202.11L493.283 203.351L488.409 202.827L489.122 201.577L494.149 202.11Z" fill="#434271"/>
<path d="M509.085 220.777L507.765 221.608L493.283 203.351L494.149 202.11L509.085 220.777Z" fill="#413E56"/>
<path d="M512.292 233.434L513.752 232.871L509.085 220.777L507.765 221.608L512.292 233.434Z" fill="#657A80"/>
<path d="M520.021 244.922L521.723 244.618L513.752 232.871L512.292 233.434L520.021 244.922Z" fill="#413E56"/>
<path d="M526.606 263.567L524.755 264.043L520.021 244.922L521.723 244.618L526.606 263.567Z" fill="#657A80"/>
<path d="M543.137 194.442L545.564 192.986L539.532 195.642L538.892 196.327L543.137 194.442Z" fill="#1A1D1F"/>
<path d="M548.436 198.586L545.922 199.918L543.137 194.442L545.564 192.986L548.436 198.586Z" fill="#343B4D"/>
<path d="M550.1 205.076L552.745 203.861L548.436 198.586L545.922 199.918L550.1 205.076Z" fill="#5D6271"/>
<path d="M560.127 208.665L563.085 207.527L552.745 203.861L550.1 205.076L560.127 208.665Z" fill="#858994"/>
<path d="M570.553 204.994L567.367 206.189L560.126 208.665L563.085 207.527L570.553 204.994Z" fill="#444F51"/>
<path d="M567.367 206.189L569.255 213.209L572.564 212.411L570.553 204.994L567.367 206.189Z" fill="#343B4D"/>
<path d="M569.255 213.209L589.091 214.736L592.957 213.731L572.564 212.411L569.255 213.209Z" fill="#5D6271"/>
<path d="M565.51 210.113L568.626 209.009L553.558 218.591L554.411 217.171L565.51 210.113Z" fill="#767C9A"/>
<path d="M547.593 152.996L550.16 150.596L556.766 165.339L553.567 166.44L547.593 152.996Z" fill="#71777A"/>
<path d="M543.137 146.404L545.564 143.855L555.042 148.246L552.328 150.7L543.137 146.404Z" fill="#424A4E"/>
<path d="M540.352 134.244L542.692 131.421L545.564 143.855L543.137 146.404L540.352 134.244Z" fill="#424A4E"/>
<path d="M542.309 123.392L539.98 126.394L530.366 133.303L530.628 131.721L542.309 123.392Z" fill="#424A4E"/>
<path d="M548.436 123.237L545.922 126.245L539.98 126.394L542.309 123.392L548.436 123.237Z" fill="#1A1D1F"/>
<path d="M545.564 130.01L548.436 128.597V123.237L545.922 126.245L545.564 130.01Z" fill="#1A1D1F"/>
<path d="M599.397 214.537L603.585 213.525L592.957 213.731L589.091 214.736L599.397 214.537Z" fill="#858994"/>
<path d="M601.31 218.875L605.596 218.045L603.585 213.525L599.397 214.537L601.31 218.875Z" fill="#444F51"/>
<path d="M610.259 224.636L614.787 223.852L605.596 218.045L601.31 218.875L610.259 224.636Z" fill="#202F32"/>
<path d="M614.437 231.773L619.096 231.151L614.787 223.852L610.259 224.636L614.437 231.773Z" fill="#73819C"/>
<path d="M622.255 231.094L617.5 231.716L614.437 231.773L619.096 231.151L622.255 231.094Z" fill="#73819C"/>
<path d="M625.128 226.352L621.633 228.964L622.255 226.106L625.128 226.352Z" fill="#444F51"/>
<path d="M620.285 241.713L625.128 241.319V226.352L621.633 228.964L620.388 229.785L620.285 241.713Z" fill="#989AA6"/>
<path d="M634.768 274.555L640.064 274.911L625.128 241.319L620.285 241.713L634.768 274.555Z" fill="#B6B8BF"/>
<path d="M634.768 281.292L640.064 281.802V274.911L634.768 274.555V281.292Z" fill="#CED0D4"/>
<path d="M647.023 291.661L652.702 292.409L655 278.281L649.251 277.85L647.023 291.661Z" fill="#B6B8BF"/>
<path d="M682.394 225.053L689.181 224.266L684.585 220.445L677.937 221.318L682.394 225.053Z" fill="#222532"/>
<path d="M682.394 233.279L689.181 232.681V224.266L682.394 225.053V233.279Z" fill="#5B5D69"/>
<path d="M690.192 234.903L697.223 234.34L689.181 232.681L682.394 233.279L690.192 234.903Z" fill="#5B5D69"/>
<path d="M690.192 253.127L697.223 252.985V234.34L690.192 234.903V253.127Z" fill="#8C8C93"/>
<path d="M703.561 265.555L711.011 265.696L706.415 246.813L699.252 247.708L703.561 265.555Z" fill="#97989E"/>
<path d="M701.797 280.781L709.192 281.275L711.011 265.696L703.561 265.555L701.797 280.781Z" fill="#E5E2E8"/>
<path d="M709.967 294.983L717.617 295.803L709.192 281.275L701.797 280.781L709.967 294.983Z" fill="#868398"/>
<path d="M722.407 275.368L730.447 275.735L718.766 262.662L715.319 262.518L714.237 266.072L722.407 275.368Z" fill="#8D8895"/>
<path d="M722.407 278.903L730.447 279.351V275.735L722.407 275.368V278.903Z" fill="#A8A0A7"/>
<path d="M704.404 294.182L697.156 293.398L699.941 300.614L707.277 301.565L704.404 294.182Z" fill="#928D9E"/>
<path d="M709.967 294.983L717.617 295.803L720.297 305.805L712.836 305.736L709.967 294.983Z" fill="#8D8895"/>
<path d="M725.659 309.55L718.191 310.35L712.836 305.736L720.297 305.805L725.659 309.55Z" fill="#303848"/>
<path d="M708.482 310.111L716.086 311.281L707.277 301.565L699.941 300.614L708.482 310.111Z" fill="#4C5768"/>
<path d="M728.349 307.692L736.574 308.806L740.404 327.25L732.062 325.721L728.349 307.692Z" fill="#919EA2"/>
<path d="M741.936 308.333L733.548 307.23L728.349 307.692L736.574 308.806L741.936 308.333Z" fill="#BDC1C9"/>
<path d="M744.617 305.482L736.147 304.445L733.548 307.23L741.936 308.333L744.617 305.482Z" fill="#C6C1C8"/>
<path d="M751.128 302.58L742.46 301.608L736.147 304.445L744.617 305.482L751.128 302.58Z" fill="#CCC4CC"/>
<path d="M766.829 289.883L757.686 289.199L742.46 301.608L751.128 302.58L766.829 289.883Z" fill="#D9D3D6"/>
<path d="M784.255 312.215L780.329 311.818L778.102 315.984L781.957 316.477L784.255 312.215Z" fill="#C7DBE6"/>
<path d="M780.234 321.336L770.683 319.94L765.298 335.563L774.681 337.321L780.234 321.336Z" fill="#C6C6CC"/>
<path d="M759.553 331.451L750.629 329.827L732.062 325.721L740.404 327.25L759.553 331.451Z" fill="#9CA2A0"/>
<path d="M765.298 335.563L769.798 337.376L780.234 338.67L774.681 337.321L765.298 335.563Z" fill="#6B6A76"/>
<path d="M784.83 335.796L777.649 335.423L781.957 329.58L784.83 335.796Z" fill="#4D4765"/>
<path d="M734.277 342.998L726.12 341.112L727.977 346.396L736.192 348.403L734.277 342.998Z" fill="#D2C1CC"/>
<path d="M743.851 343.9L735.405 341.994L726.12 341.112L734.277 342.998L743.851 343.9Z" fill="#4C5768"/>
<path d="M731.979 340.813L723.892 338.976L717.579 331.979L725.468 333.654L731.979 340.813Z" fill="#406174"/>
<path d="M708.482 310.111L716.085 311.281L725.468 333.654L717.579 331.979L708.482 310.111Z" fill="#9FA1A3"/>
<path d="M773.654 349.063L783.298 351.135L785.596 357.362L775.882 355.148L773.654 349.063Z" fill="#585B77"/>
<path d="M793.447 352.645L783.495 350.537L773.654 349.063L783.298 351.135L793.447 352.645Z" fill="#9CA2A0"/>
<path d="M807.808 317.163L797.42 315.861L797.606 309.94L808 311.104L807.808 317.163Z" fill="#C2D9E5"/>
<path d="M811.447 310.857L800.948 309.699L797.606 309.94L808 311.104L811.447 310.857Z" fill="#D4D1C9"/>
<path d="M828.489 323.375L817.473 321.932L815.469 326.562L822.937 329.506L828.489 323.375Z" fill="#D4C8DC"/>
<path d="M815.803 336.77L823.894 334.547L812.955 332.349L815.803 336.77Z" fill="#9CA2A0"/>
<path d="M818.341 320.063L807.633 318.695L809.118 333.882L819.872 335.603L818.341 320.063Z" fill="#807A86"/>
<path d="M814.875 343.101L825.737 345.012L826.766 338.558L823.894 334.547L815.803 336.77L814.875 343.101Z" fill="#727680"/>
<path d="M812.646 346.879L823.511 348.902L825.736 345.012L814.874 343.101L812.646 346.879Z" fill="#AFA6B1"/>
<path d="M823.414 350.52L834.617 352.63L823.511 348.902L812.646 346.879L823.414 350.52Z" fill="#65597C"/>
<path d="M869.468 336.87L857.208 335.117L857.394 342.445L869.659 344.368L869.468 336.87Z" fill="#7AA2BC"/>
<path d="M862.191 332.087L850.152 330.445L843.654 337.051L855.489 338.847L862.191 332.087Z" fill="#DDD4D9"/>
<path d="M851.452 339.34L863.434 341.162L855.489 338.847L843.654 337.051L851.452 339.34Z" fill="#9CA2A0"/>
<path d="M843.808 355.167L832.328 352.999L832.658 346.667L844.192 347.877L843.808 355.167Z" fill="#5B6A74"/>
<path d="M844.192 347.877L839.596 346.306L836.437 344.916L832.658 346.667L844.192 347.877Z" fill="#9CA2A0"/>
<path d="M832.128 358.721L821.002 356.474L809.942 378.551L819.106 384.107L832.128 358.721Z" fill="#BCB3BA"/>
<path d="M816.234 364.331L805.59 361.957L797.049 364.21L807.426 366.635L816.234 364.331Z" fill="#B39FAC"/>
<path d="M786.466 372.788L796.511 375.412L807.426 366.635L797.049 364.21L786.466 372.788Z" fill="#ACA7AF"/>
<path d="M780.71 369.291L790.623 371.934L763.957 386.972L759.361 390.833L750.444 387.863L780.71 369.291Z" fill="#C3C8D1"/>
<path d="M726.677 405.338L734.851 408.708L759.361 390.833L750.444 387.863L726.677 405.338Z" fill="#D9D4E0"/>
<path d="M725.007 439.72L733.128 443.884L734.851 408.708L726.677 405.338L725.007 439.72Z" fill="#C6C4CD"/>
<path d="M721.107 443.665L729.106 447.92L733.128 443.884L725.007 439.72L721.107 443.665Z" fill="#C2BFC7"/>
<path d="M721.107 446.61L729.106 450.933V447.92L721.107 443.665V446.61Z" fill="#717F9C"/>
<path d="M788.323 462.107L798.425 466.807L806.085 471.026L795.649 466.228L788.323 462.107Z" fill="#9CA2A0"/>
<path d="M798.617 457.322L788.508 452.837L788.323 462.107L798.425 466.807L798.617 457.322Z" fill="#B4B3BA"/>
<path d="M789.474 454.379L779.781 450.11L780.261 437.785L783.873 440.036L789.808 443.638L789.474 454.379Z" fill="#A79FA9"/>
<path d="M799.766 477.702L789.622 472.753L782.751 480.655L792.68 485.785L799.766 477.702Z" fill="#CDD0C4"/>
<path d="M809.532 478.488L799.092 473.519L789.622 472.753L799.766 477.702L809.532 478.488Z" fill="#322C36"/>
<path d="M857.579 443.864L869.851 448.157L861.808 465.817L849.781 461.121L857.579 443.864Z" fill="#CBD3D9"/>
<path d="M836.914 490.367L825.643 485.118L849.781 461.121L861.808 465.817L836.914 490.367Z" fill="#C4BFD4"/>
<path d="M841.319 495.015L829.914 489.66L825.643 485.118L836.914 490.366L841.319 495.015Z" fill="#2C3649"/>
<path d="M876.362 394.186L863.893 391.123L862.407 396.882L874.829 400.077L876.362 394.186Z" fill="#6B7F8C"/>
<path d="M742.511 236.545L734.104 237.066L732.991 241.015L741.362 240.587L742.511 236.545Z" fill="#5B5D69"/>
<path d="M760.656 228.131L769.894 227.399L767.788 218.576L757.686 218.267L760.656 228.131Z" fill="#9B99A3"/>
<path d="M771.809 216.284L762.513 217.269L757.686 218.267L767.788 218.576L771.809 216.284Z" fill="#A29FA3"/>
<path d="M773.34 242.245L763.998 242.64L764.927 255.621L774.297 255.525L773.34 242.245Z" fill="#D0D0D2"/>
<path d="M796.127 292.896L786.093 292.144L783.124 285.484L793.064 286.08L796.127 292.896Z" fill="#6F6E7D"/>
<path d="M797.085 279.162L787.022 278.723L783.124 285.484L793.064 286.081L797.085 279.162Z" fill="#6F7D82"/>
<path d="M774.767 285.605L784.447 286.451L788.372 283.728L778.296 283.189L774.767 285.605Z" fill="#CBC6D0"/>
<path d="M774.767 271.025L784.447 271.285L788.372 279.887L778.667 279.636L774.767 271.025Z" fill="#949C9B"/>
<path d="M780.234 260.063L770.683 260.056V267.542L780.234 267.722V260.063Z" fill="#BDBEC6"/>
<path d="M769.197 259.884L778.702 259.886L774.297 255.525L764.927 255.621L769.197 259.884Z" fill="#657487"/>
<path d="M543.553 362.434L541.187 360.123L533.11 372.714L535.223 375.311L543.553 362.434Z" fill="#D9D9D6"/>
<path d="M521.969 378.484L523.734 381.211L535.223 375.311L533.11 372.714L521.969 378.484Z" fill="#C6D0D6"/>
<path d="M521.969 393.748L523.734 396.822V381.211L521.969 378.484V393.748Z" fill="#BEB8CE"/>
<path d="M514.449 403.687L515.979 406.984L523.734 396.822L521.969 393.748L514.449 403.687Z" fill="#CDD1CC"/>
<path d="M47.7872 213.129L58.0323 210.312L48.8408 180.434L41.4681 183.31V194.828L47.7872 213.129Z" fill="url(#paint46_linear_7_818)"/>
<path d="M833.851 67.8671L826.287 73.5656L820.16 65.9044L823.127 63.9279L833.851 67.8671Z" fill="#2A2F3E"/>
<path d="M159.566 378.213L147.757 449.038L199.965 417.86L159.566 378.213Z" fill="#E9E2E8"/>
<path d="M150.617 462.654L173.861 499.572L147.757 449.038L150.617 462.654Z" fill="#86869F"/>
<path d="M147.757 449.038L173.861 464.709L180.489 466.045L175.894 460.634L182.405 460.612L180.681 454.999L192.361 453.404L192.745 448.851L186.617 441.407L199.965 441.345V417.86L147.757 449.038Z" fill="#75788E"/>
<path d="M147.757 449.038L173.861 499.572L187.957 504.99L189.681 502.856V499.561L182.213 493.559L187.191 482.115L177.234 478.841L180.489 471.276V466.045L173.861 464.709L147.757 449.038Z" fill="#7C7D9B"/>
<path d="M198.106 511L189.681 502.856L187.957 504.99L198.106 511Z" fill="#AEAAB8"/>
<path d="M147.757 378.317V449.038L159.566 378.213L147.757 378.317Z" fill="#A19EBA"/>
<path d="M187.054 328.193L114.138 329.277L111.84 341.457L147.757 378.317L159.566 378.213L187.054 328.193Z" fill="#9392A7"/>
<path d="M187.096 356.301L187.054 328.193L159.566 378.213L177.043 378.057L187.096 356.301Z" fill="#D4CED5"/>
<path d="M187.096 356.301L216.681 360.948L241.67 324.508L236.213 318.741L222.569 316.001L187.054 328.193L187.096 356.301Z" fill="#EDE6EC"/>
<path d="M159.566 378.213L199.965 417.86L177.043 378.057L159.566 378.213Z" fill="#E6E2E5"/>
<path d="M199.965 417.86L208.064 413.284V406.461L228.17 397.572L237.362 377.52L216.681 360.948L199.965 417.86Z" fill="#AAAEBA"/>
<path d="M216.681 360.948L250 340.757V327.617L241.67 324.508L216.681 360.948Z" fill="#AFADBF"/>
<path d="M199.965 441.345L208.064 413.284L199.965 417.86V441.345Z" fill="#6A6D89"/>
<path d="M187.054 328.193L222.569 316.001L221.564 312.808L214.096 307.081L204.015 305.472L208.064 299.883L204.015 287.131L193.415 280.017L199.639 316.203L187.054 328.193Z" fill="#E2DAE2"/>
<path d="M187.054 328.193L193.415 280.017L187.096 278.079L184.798 272.591L159.566 280.541L187.054 328.193Z" fill="#A8A3B9"/>
<path d="M114.138 329.277L187.054 328.193L159.566 280.541L114.138 329.277Z" fill="#9F9CB7"/>
<path d="M159.566 280.541L121.319 279.105L123.33 289.497L103.798 305.403L114.138 329.277L159.566 280.541Z" fill="url(#paint47_linear_7_818)"/>
<path d="M103.798 305.403V326.223L114.138 329.277L103.798 305.403Z" fill="#C7CDCD"/>
<path d="M103.798 326.223L111.84 341.457L114.138 329.277L103.798 326.223Z" fill="#F5E0E9"/>
<path d="M184.798 272.591L179.34 270.354L176.491 263.425L161.532 264.254L159.566 260.512L145.16 261.044L153.662 256.55L143.723 256.72L129.074 263.343V267.398L108.968 267.727L114.138 270.247L121.319 279.105L159.566 280.541L184.798 272.591Z" fill="url(#paint48_linear_7_818)"/>
<path d="M103.798 269.402L97.7659 257.504L103.798 245.546L90.0106 240.303V266.592L103.798 271.86V269.402Z" fill="#D2CAD7"/>
<path d="M90.0106 222.103L85.9893 231.134L79.6702 231.253L69.3298 240.68L77.0851 242.27L79.6702 248.287L87.1383 253.642L90.0106 266.592V240.303V222.103Z" fill="#F1EDEF"/>
<path d="M100.638 221.896L90.0106 222.103V240.303L100.638 221.896Z" fill="#C3BFCE"/>
<path d="M144.872 233.793L150.617 233.106L157.223 236.175L172.16 235.899L163.255 233.741L150.617 230.061L131.683 217.525L114.138 214.977L108.968 217.973L117.298 218.677L127.926 225.709L140.564 227.785L144.872 233.793Z" fill="#C1B5C5"/>
<path d="M124.191 236.784L131.683 235.197L124.191 233.888V236.784Z" fill="#86BDCC"/>
<path d="M116.723 200.744L121.606 207.591L124.191 202.906V188.716L116.723 193.22V200.744Z" fill="#F9F7F9"/>
<path d="M84.266 193.336L90.0106 191.19L96.9043 193.066L100.638 189.226L116.723 188.878V193.22L124.191 188.716L126.202 182.012L129.936 178.453L74.5 152.565L84.266 193.336Z" fill="#E1D9E2"/>
<path d="M74.5 152.565L129.936 178.453L134.245 175.17L124.191 133.989L74.5 152.565Z" fill="#D1C7D1"/>
<path d="M74.5 222.404L77.0851 201.86L84.2659 193.336L74.5 152.565L50.0851 201.559L55.8298 217.435V227.091L69.3298 240.68L79.6702 231.253L74.5 222.404Z" fill="#E5E1E6"/>
<path d="M35.4362 178.55V194.957L47.7872 213.129L41.4681 194.828V183.31L50.0851 201.559L74.5 152.565L35.4362 178.55Z" fill="#A9A7B7"/>
<path d="M46.6383 140.852L35.4362 153.509V178.55L74.5 152.565L46.6383 140.852Z" fill="#F4EFF3"/>
<path d="M67.1755 129.088L50.0851 133.274L46.6383 140.852L74.5 152.565L67.1755 129.088Z" fill="#E1D9E0"/>
<path d="M54.9681 104.039L50.0851 133.274L67.1755 129.088L54.9681 104.039Z" fill="#EDF0EA"/>
<path d="M79.6702 75.0687L60.5691 90.9117L54.9681 104.039L67.1755 129.088L79.6702 75.0687Z" fill="#ECE4EC"/>
<path d="M79.6702 75.0687L67.1755 129.088L127.937 96.8205L79.6702 75.0687Z" fill="#E2DAE2"/>
<path d="M67.1755 129.088L74.5 152.565L127.937 96.8205L67.1755 129.088Z" fill="#C7C3D1"/>
<path d="M41.7553 60.3449L41.1808 66.9857L29.4043 73.3818L13.6064 86.4944L7 100.187L46.6383 82.0887L60.5691 55.1589L41.7553 60.3449Z" fill="#F3EDF2"/>
<path d="M104.372 55.5461L84.266 57.0285L79.6702 75.0687L104.372 55.5461Z" fill="#F8F7F7"/>
<path d="M127.937 96.8205L124.191 53.2008L104.372 55.5462L79.6702 75.0687L127.937 96.8205Z" fill="url(#paint49_linear_7_818)"/>
<path d="M188.245 117.535L127.937 96.8205L124.191 133.989L188.245 117.535Z" fill="#D9D5E1"/>
<path d="M134.245 175.17L145.447 171.727V163.029L158.947 150.523L124.191 133.989L134.245 175.17Z" fill="#9B9DB4"/>
<path d="M180.489 132.562L191.979 133.58L188.245 139.636L207.489 131.878L203.755 122.075L199.734 114.758L218.404 117.614L229.319 110.328L231.33 102.984L224.436 94.135L224.723 83.0494L212.947 86.5898L213.809 78.9906L202.319 75.5387L188.245 117.535L180.489 132.562Z" fill="#DDD9E2"/>
<path d="M202.319 75.5387L191.404 85.4556V95.0543L181.638 99.105L188.245 117.535L202.319 75.5387Z" fill="#8C8BA9"/>
<path d="M188.245 117.535L181.638 99.105L170.436 99.4141L152.34 93.5305L156.218 79.2032L170.723 72.3924L164.117 53.7144L127.937 96.8205L188.245 117.535Z" fill="#C1BDC9"/>
<path d="M164.117 53.7145L156.218 52.216L167.564 49.2524L124.191 43.0667L134.245 52.8917L124.191 53.2008L127.937 96.8205L164.117 53.7145Z" fill="#D0C8D2"/>
<path d="M421.479 417.669L428.66 447.174L434.979 453.947L459.968 411.806L421.479 417.669Z" fill="#A6AABE"/>
<path d="M434.979 453.947L459.968 449.707L463.989 443.472L459.968 411.806L434.979 453.947Z" fill="#9C9FB6"/>
<path d="M463.989 443.472L489.553 411.613L459.968 411.806L463.989 443.472Z" fill="#9089AD"/>
<path d="M459.968 411.806L489.553 411.613V392.626L513.394 373.128L474.761 345.912L459.968 411.806Z" fill="#8586A1"/>
<path d="M474.761 345.912L415.734 363.676L410.851 384.679L421.479 402.311V417.669L459.968 411.806L474.761 345.912Z" fill="#7D819E"/>
<path d="M408.84 295.279L404.819 316.874L419.181 346.515L415.734 363.676L474.761 345.912L408.84 295.279Z" fill="#AFACBE"/>
<path d="M461.979 300.446L408.84 295.279L474.761 345.912L461.979 300.446Z" fill="#9794A6"/>
<path d="M457.67 245.736L408.84 295.279L461.979 300.446L457.67 245.736Z" fill="#D0CCD6"/>
<path d="M515.979 291.674L457.67 245.736L461.979 300.446L515.979 291.674Z" fill="#A3A4BD"/>
<path d="M474.761 345.912L515.979 291.674L461.979 300.446L474.761 345.912Z" fill="#898EA5"/>
<path d="M474.761 345.912L513.394 373.128L509.372 339.893L541.83 297.257L552.745 277.145V268.207L530.628 271.98L515.979 291.674L474.761 345.912Z" fill="#928FAE"/>
<path d="M535.223 375.311L523.734 381.211L540.106 387.471L545.564 378.197L543.553 362.434L535.223 375.311Z" fill="#776594"/>
<path d="M531.202 404.203L540.106 387.471L523.734 381.211L531.202 404.203Z" fill="#585476"/>
<path d="M523.734 381.211V396.822L515.979 406.984L523.734 417.041L526.606 404.235L523.734 381.211Z" fill="#A38CB9"/>
<path d="M526.606 404.235L523.734 417.041L528.904 417.009L531.202 404.203L523.734 381.211L526.606 404.235Z" fill="#7774A3"/>
<path d="M513.752 253.078L503.34 223.855L457.67 245.736L515.979 291.674L530.628 271.98L526.606 268.622V263.567L513.752 253.078Z" fill="#9594AE"/>
<path d="M510.234 148.268L503.34 148.432L497.308 167.276L520.574 215.802V131.97L510.234 148.268Z" fill="#CBC7D0"/>
<path d="M457.67 183.563L446.468 183.805L432.968 187.495L457.67 245.736L465.713 190.203L457.67 183.563Z" fill="url(#paint50_linear_7_818)"/>
<path d="M379.542 232.96L457.67 245.736L432.968 187.495L379.542 232.96Z" fill="#8E8FAC"/>
<path d="M426.649 179.505L413.723 175.063L416.308 164.082L382.989 168.38L376.957 176.835L379.543 232.96L432.968 187.495L426.649 179.505Z" fill="#D6D3DF"/>
<path d="M382.989 168.38L364.894 170.26L363.457 168.233L360.585 168.298L356.277 175.16L347.372 180.648L344.213 192.03L376.957 176.835L382.989 168.38Z" fill="#8C98B9"/>
<path d="M376.957 176.835L344.213 192.03L329.851 199.966L325.543 208.126L379.543 232.96L376.957 176.835Z" fill="#CAC4D5"/>
<path d="M325.543 208.126L316.638 220.917L312.043 251.501L322.67 253.372L325.543 208.126Z" fill="#9B9AB4"/>
<path d="M312.043 251.501L314.34 260.992L322.67 253.372L312.043 251.501Z" fill="#9B9DB4"/>
<path d="M379.543 232.96L325.543 208.126L322.67 253.372L379.543 232.96Z" fill="#BEB7C7"/>
<path d="M322.67 253.372L314.34 260.992L344.213 294.142L361.16 293.898L379.543 232.96L322.67 253.372Z" fill="#9795AD"/>
<path d="M361.16 293.898L387.872 287.031L408.84 295.279L379.543 232.96L361.16 293.898Z" fill="#7D819E"/>
<path d="M509.085 220.777L513.752 232.871L521.723 244.618L526.606 263.567L556.766 252.35L567.681 246.998L582.043 225.857L569.979 214.176L568.638 209.009L554.66 217.825L542.404 201.785L520.574 215.802L509.085 220.777Z" fill="#817E9D"/>
<path d="M587.213 122.254L548.436 128.597L542.691 131.421L545.564 143.855L555.043 148.246L550.16 150.596L556.766 165.339L547.287 165.553L540.968 161.231V150.812L530.628 131.721L520.574 131.97V215.802L542.404 201.785L539.532 195.642L545.564 192.986L548.436 198.586L575.149 181.034L587.213 122.254Z" fill="#8D8EAA"/>
<path d="M575.149 181.034L548.436 198.586L552.745 203.861L563.085 207.527L570.553 204.994L572.564 212.411L592.957 213.732L619.096 145.681L575.149 181.034Z" fill="#8D8CAE"/>
<path d="M619.096 145.681L592.957 213.732L647.819 185.616L619.096 145.681Z" fill="#9699B4"/>
<path d="M647.819 185.616L592.957 213.731L603.585 213.525L605.596 218.045L614.787 223.852L619.096 231.151L622.255 231.094V226.106L625.128 226.352V231.042L633.457 235.482L647.819 185.616Z" fill="#9FA0B9"/>
<path d="M633.457 235.482L625.128 231.042V241.319L634.319 261.822L640.064 274.911V281.802L643.223 281.755L647.819 276.591L653.564 266.609V254.014L684.585 220.445L689.181 224.266L700.383 198.591L633.457 235.482Z" fill="#9293AD"/>
<path d="M633.457 235.482L700.383 198.591L647.819 185.616L633.457 235.482Z" fill="#BDBBCB"/>
<path d="M697.223 252.985L706.415 246.813L711.011 265.696L742.032 204.586L700.383 198.591L689.181 224.266L697.223 234.34V244.865V252.985Z" fill="#898EA7"/>
<path d="M652.702 292.409L660.745 289.295L655 278.281L652.702 292.409Z" fill="#9082A3"/>
<path d="M374.66 166.31L379.542 160.702L393.809 145.385L393.234 141.124L407.596 122.872L380.787 129.646L379.542 141.066L361.16 138.769L354.361 141.681L351.106 155.872L352.542 166.815L360.585 168.298L363.457 168.233L374.66 166.31Z" fill="#9A9AAF"/>
<path d="M417.17 102.155V91.1323L407.596 97.2985L411.808 103.087L403.575 103.308L389.788 114.29L380.787 120.613L372.744 120.82V127.689L380.787 129.646L407.596 122.872L417.17 102.155Z" fill="#A29FB8"/>
<path d="M376.957 102.453L372.744 114.932L385.766 114.592L391.319 110.613L382.032 95.6392L382.989 87.7573L376.957 84.1962L371.213 88.6755L376.957 102.453Z" fill="#A099B0"/>
<path d="M363.601 96.7343L357.234 107.888L366.425 107.643L372.744 104.53L371.213 99.6646L363.601 96.7343Z" fill="#A196A9"/>
<path d="M412.574 136.323L407.596 122.872L393.234 141.124L402.234 140.904L412.574 136.323Z" fill="#BCBAC6"/>
<path d="M418.606 148.773L431.724 157.327V162.055L436.51 160.368V157.214V154.849L439.192 157.546L440.723 155.736L435.361 150.541L426.649 144.592L421.574 138.266L421.383 134.431L412.574 136.323L418.606 148.773Z" fill="#878DA2"/>
<path d="M425.595 134.327L430.957 138.429L432.968 144.439L443.404 149.955V158.434L455.851 166.138V161.5L453.744 153.261L467.149 153.144L473.66 151.41V154.769L465.713 154.56V162.953L478.446 172.049L480.074 167.664L503.34 148.432L493.574 145.597L478.83 151.09L470.021 146.755L472.894 135.425L479.787 127.151L503.34 124.38L468.68 103.335L407.596 122.872L421.383 134.431L425.595 134.327Z" fill="#8E8DA3"/>
<path d="M499.894 130.603L482.66 132.911L485.89 136.291L498.745 133.798L510.234 148.268L520.574 131.97L503.34 124.38L499.894 130.603Z" fill="#8B8EA1"/>
<path d="M503.34 124.38L520.574 131.97L564.042 99.19L559.925 52.3091L557.915 49.6879L548.436 51.7598L537.521 50.3015L526.894 53.5961L468.68 103.335L503.34 124.38Z" fill="#ADACC2"/>
<path d="M564.042 99.19L520.574 131.97L530.628 131.721L542.309 123.392L548.436 123.237V128.597L587.213 122.254L612.489 65.0897L564.042 99.19Z" fill="#CEC9D9"/>
<path d="M557.149 46.4324L550.351 44.4548L548.436 51.7598L557.915 49.6879L557.149 46.4324Z" fill="#726B8B"/>
<path d="M612.489 65.0897L561.266 49.5868L571.32 57.2871L569.309 62.665L564.042 62.819L566.532 59.267L559.926 52.3091L564.042 99.19L612.489 65.0897Z" fill="#BEBBCF"/>
<path d="M593.101 35.6341L561.266 49.5868L612.489 65.0897L593.101 35.6341Z" fill="#9F9EB4"/>
<path d="M634.176 41.8991V36.0087L612.489 31.5938L593.101 35.6341L612.489 65.0896L634.176 41.8991Z" fill="#A3A5BF"/>
<path d="M612.489 65.0897L654.808 87.7033L664.191 73.9414L661.75 39.0573L634.175 41.8991L654.617 56.57L612.489 65.0897Z" fill="#E0DEE7"/>
<path d="M654.617 56.57L634.175 41.8991L612.489 65.0897L654.617 56.57Z" fill="#D1CFDB"/>
<path d="M612.489 65.0897L619.096 145.681L654.808 87.7033L612.489 65.0897Z" fill="#C7C1D2"/>
<path d="M587.213 122.254L619.096 145.681L612.489 65.0897L587.213 122.254Z" fill="#9FA0BC"/>
<path d="M575.149 181.034L619.096 145.681L587.213 122.254L575.149 181.034Z" fill="#8185A1"/>
<path d="M619.096 145.681L647.819 185.616L677.404 134.784L619.096 145.681Z" fill="#8B8DA5"/>
<path d="M647.819 185.616L700.383 198.591L677.404 134.784L647.819 185.616Z" fill="#ACA7BC"/>
<path d="M677.404 134.784L700.383 198.591L727.383 135.575L677.404 134.784Z" fill="#9FA0BC"/>
<path d="M700.383 198.591L742.032 204.586L765.872 208.116V199.079L742.032 160.352L727.383 135.575L700.383 198.591Z" fill="#9A9BB7"/>
<path d="M742.032 160.352L752.339 159.487L760.894 165.058L768.553 166.801L774.681 179.157L780.234 176.619L777.744 168.813L769.319 157.795L774.107 148.344L775.256 144.891L780.234 144.774L786.361 136.968L727.383 135.575L742.032 160.352Z" fill="#8E8FAC"/>
<path d="M796.894 170.699L791.915 154.381L789.617 140.721L790.574 126.378L794.213 126.288L791.915 139.052L797.276 144.776L797.66 152.03L794.404 153.518L799.766 161.669L801.297 176.973L796.894 182.465L789.808 185.489L786.361 192.215L782.532 185.641L786.361 177.496L793.255 176.138L796.894 170.699Z" fill="#7A769E"/>
<path d="M700.383 70.6595L706.32 48.6261L688.894 47.7689L677.979 40.5627L661.75 39.0573L664.191 73.9414L700.383 70.6595Z" fill="#B2AFCA"/>
<path d="M734.851 78.1184L736.766 57.564L706.319 48.6261L700.383 70.6595L734.851 78.1184Z" fill="#B2AFCA"/>
<path d="M727.383 135.575L734.851 78.1185L677.404 134.784L727.383 135.575Z" fill="#9698B3"/>
<path d="M654.808 87.7033L619.096 145.681L677.404 134.784L654.808 87.7033Z" fill="#9798B2"/>
<path d="M734.851 78.1185L700.383 70.6595L664.191 73.9414L654.808 87.7033L677.404 134.784L734.851 78.1185Z" fill="#989AB5"/>
<path d="M727.383 135.575L786.361 136.968L734.851 78.1185L727.383 135.575Z" fill="#95A0B6"/>
<path d="M786.361 136.968L784.255 126.535L778.703 123.447L769.319 110.388L756.873 99.8415L754.575 90.0429L765.872 91.5483L762.808 82.9735L736.766 57.564L734.851 78.1185L786.361 136.968Z" fill="url(#paint51_linear_7_818)"/>
<path d="M765.872 56.7114L748.541 60.7643L746.25 57.2859L736.766 57.564L762.808 82.9735L765.872 56.7114Z" fill="#A3A5BF"/>
<path d="M784.909 56.1541L765.872 56.7114L762.808 82.9735L784.909 56.1541Z" fill="#9F9EB4"/>
<path d="M788.918 84.0181L789.204 79.4158L801.297 73.345L784.909 56.1541L782.532 82.43L788.918 84.0181Z" fill="#CAC7D6"/>
<path d="M765.872 91.5483L778.196 90.8715L782.532 82.43L784.909 56.1541L762.808 82.9735L765.872 91.5483Z" fill="#C6C2D1"/>
<path d="M789.204 79.4158L797.276 80.6109V92.5147L777.936 103.313L782.532 108.636L803.021 98.0121L809.149 100.879L813.361 90.2647L809.34 83.4573L824.851 78.4253L816.043 55.2428L784.909 56.1541L801.297 73.345L789.204 79.4158Z" fill="url(#paint52_linear_7_818)"/>
<path d="M830.213 73.6323L823.127 67.1615V63.9279L833.851 67.8671L832.128 63.6693L821.788 58.712L816.043 55.2428L824.851 78.4253L830.213 73.6323Z" fill="#A3AFC9"/>
<path d="M167.564 41.7015L150.904 39.9054L141.569 37.8818L124.191 43.0666L167.564 49.2524V41.7015Z" fill="#CDD0DA"/>
<path d="M182.308 67.304L187.288 56.7838L188.724 50.7302L178.287 51.0519L172.16 53.4674L164.117 53.7144L170.723 72.3924L182.308 67.304Z" fill="#A5A4B5"/>
<path d="M193.415 75.7984L200.404 73.8483L189.681 63.1097L202.989 60.8678L210.17 55.4577L202.319 53.8041L194.277 57.8329L187.288 56.7838L182.308 67.304L193.415 75.7984Z" fill="#A1A3B7"/>
<path d="M188.245 43.7653L177.33 44.1066L178.287 51.0519L188.724 50.7302L188.245 43.7653Z" fill="#C8C6D1"/>
<path d="M161.437 37.2498L181.638 36.6085L167.564 34.732V32.7957L150.904 32.8463L159.808 34.9308L161.437 37.2498Z" fill="#DCD0DA"/>
<path d="M185.732 29.2093L175.248 29.5472V31.5811L186.163 31.2306L185.732 29.2093Z" fill="#A3A1B3"/>
<path d="M197.819 36.5798L191.022 35.0503L191.691 38.5195L197.819 36.5798Z" fill="#74617D"/>
<path d="M202.702 37.3946L200.021 38.2553L202.702 39.432V37.3946Z" fill="#B79CBF"/>
<path d="M205.766 30.6009L200.021 31.2709L202.702 33.5622L205.766 30.6009Z" fill="#D5B4CB"/>
<path d="M211.99 30.401L208.926 30.4998L211.032 32.4705L211.99 30.401Z" fill="#D2CBDE"/>
<path d="M207.306 40.4462L207.298 40.452C207.277 40.4867 207.285 40.4775 207.306 40.4462Z" fill="#DA00FF"/>
<path d="M224.532 37.4807L227.596 35.1485L214.957 36.0355L211.128 34.4095C211.128 34.4095 207.586 40.0326 207.306 40.4462L224.532 37.4807Z" fill="#EFF0F7"/>
<path d="M195.234 40.858L191.022 45.0363L202.894 42.0462L195.234 40.858Z" fill="#B9B2C2"/>
<path d="M197.819 47.6367L210.17 52.3022L210.457 43.0712L197.819 47.6367Z" fill="#9590AD"/>
<path d="M237.266 64.6978L243.202 60.4357L237.841 49.2168L234.968 45.805L228.84 40.5523L210.457 43.0712L210.17 52.3022L218.979 50.4785L222.808 58.0363L213.234 65.9963L207.284 66.9501L206.436 70.0803L213.521 68.3187L217.439 73.253L224.244 74.8997L231.33 70.6112L230.181 63.8405L234.01 61.0033L237.266 64.6978Z" fill="#E8E2E5"/>
<path d="M205.766 37.5531L208.351 34.4976L205.766 34.5803V37.5531Z" fill="#888998"/>
<path d="M216.776 33.1129L234.297 31.7271V27.9097L245.691 24.6484L243.202 21.031L252.49 19.0729L254.404 12L239.851 13.749L231.33 18.1145L234.872 20.2346L230.373 24.6588L228.362 21.7113L223.862 19.8175L215.34 23.8843V29.2737L223.67 29.0059L216.776 33.1129Z" fill="#FEEDEC"/>
<path d="M279.298 13.6099L254.404 12L252.49 19.0729L279.298 13.6099Z" fill="#8889A0"/>
<path d="M308.404 18.7052L269.914 18.5018L254.404 23.3913L252.49 30.1229L272.261 31.341L271.686 42.5208L268.957 56.4448L264.362 59.02L265.893 62.7742L295.957 49.6718L308.404 18.7052Z" fill="#8C8CA7"/>
<path d="M328.702 52.7779L339.043 49.0858L330.569 47.2897L330.425 45.9739L343.782 45.5614V42.183L336.601 37.7554L347.516 36.8246L354.553 32.1442L350.963 28.829L354.553 27.1455V24.4991L375.952 15.0257L364.319 15.406L357.713 15.6232L320.923 38.2472L295.957 49.6718L265.893 62.7742V71.4949L266.923 77.3118L276.713 78.4919L291.936 62.973L304.431 59.8163L318.362 53.0928L328.702 52.7779Z" fill="#D6D3DC"/>
<path d="M320.923 38.2472L308.404 18.7051L295.957 49.6718L320.923 38.2472Z" fill="#B2AFC3"/>
<path d="M357.713 15.6232L328.846 15.1015L308.404 18.7052L320.923 38.2472L357.713 15.6232Z" fill="#C1C2C9"/>
<path d="M334.59 60.7241V66.2537L346.08 65.9159L356.133 60.0806L353.835 56.2781L334.59 60.7241Z" fill="#E6E2E2"/>
<path d="M440.723 48.8812L417.17 68.4945L405.298 73.168V84.5765L407.596 86.8725L417.17 81.683L424.256 90.9358L442.639 53.1606L440.723 48.8812Z" fill="#A29FB6"/>
<path d="M489.122 52.2056L482.66 49.9775L455.468 46.4589L440.723 48.8812L442.639 53.1606L489.122 52.2056Z" fill="#9390AE"/>
<path d="M424.256 90.9358L422.723 98.2638L434.404 93.7592L441.393 80.6029L437.659 77.753L436.128 72.081L444.649 67.1018L446.66 62.95L442.639 53.1606L424.256 90.9358Z" fill="#C6C6CC"/>
<path d="M446.66 69.9022V77.1015L453.936 76.8935L450.107 67.928L446.66 69.9022Z" fill="#DED5DE"/>
<path d="M526.894 53.5961L501.617 53.1652L493.383 60.3368L487.447 63.6762L486.106 66.8788L479.021 61.9962L474.425 57.3893L484.191 59.4221L491.851 59.1946L493.383 54.7969L489.122 52.2056L442.639 53.1606L446.66 62.95L452.787 61.7342L455.468 62.6903L450.107 67.928L453.936 76.8935L461.212 76.6855L464.922 79.1469L455.468 79.8099L468.68 103.335L526.894 53.5961Z" fill="#BAB8C9"/>
<path d="M468.68 103.335L455.468 79.81L444.465 91.9516L428.66 102.337L417.17 102.155L407.596 122.872L468.68 103.335Z" fill="#E5DCE7"/>
<path d="M438.138 20.5748L425.595 22.1617L438.138 24.9116V20.5748Z" fill="#C7B5CC"/>
<path d="M446.66 27.4006L450.298 20.1829L438.138 20.5748V24.9116L446.66 27.4006Z" fill="#9EA3BD"/>
<path d="M523.255 39.6308L531.298 34.1276L520.574 31.3904L514.063 42.2921L526.894 46.2601L523.255 39.6308Z" fill="#B2ADC0"/>
<path d="M542.022 30.717L520.574 31.3904L531.297 34.1276L542.022 30.717Z" fill="#C0B7D2"/>
<path d="M597.171 26.5951L582.234 20.3001L583.766 24.0325L597.171 26.5951Z" fill="#ABA1B2"/>
<path d="M603.154 25.2104L601.574 28.8462L611.149 26.1538L603.154 25.2104Z" fill="#9FA8BE"/>
<path d="M702.394 35.5571L684.035 33.869L697.511 37.9634L702.394 35.5571Z" fill="#424D72"/>
<path d="M706.319 43.3597L709.287 39.6089L702.394 40.9212L706.319 43.3597Z" fill="#696874"/>
<path d="M457.67 245.736L503.34 223.855L465.713 190.203L457.67 245.736Z" fill="#B2B1C3"/>
<path d="M465.713 190.203L503.34 223.855L489.122 201.577L479.787 189.907L465.713 190.203Z" fill="#B1AFC9"/>
<path d="M490.702 189.677L479.787 189.907L489.122 201.577L494.149 202.11L490.702 189.677Z" fill="#B2AFC2"/>
<path d="M494.149 202.11L509.085 220.777L496.16 202.324L494.149 202.11Z" fill="#4F5665"/>
<path d="M494.149 178.921L490.702 189.677L496.16 202.324L509.085 220.777L520.574 215.802L497.309 167.276L494.149 178.921Z" fill="#B5B1C1"/>
<path d="M490.702 189.677L494.149 202.11L496.16 202.324L490.702 189.677Z" fill="#A7A2BA"/>
<path d="M486.824 172.851L497.309 167.276L503.34 148.432L480.074 167.664L486.824 172.851Z" fill="#B7B3BD"/>
<path d="M711.011 265.696L709.192 281.275L711.681 279.833L714.553 269.554L715.319 262.518L718.766 262.662L722.021 266.225L742.511 256.45L732.553 244.156V234.109L738.872 229.573L754.191 225.874L764.723 214.405L765.872 208.116L742.032 204.586L711.011 265.696Z" fill="#918FAD"/>
<path d="M717.617 295.803L720.298 305.805L725.66 309.55L723.936 296.72L714.362 284.409L711.681 279.833L709.192 281.275L717.617 295.803Z" fill="#9CA6BD"/>
<path d="M730.447 275.735V279.351L742.127 271.134L742.511 256.45L722.021 266.225L730.447 275.735Z" fill="#747C96"/>
<path d="M731.787 320.923L711.106 297.9L704.404 294.182L707.277 301.565L716.086 311.281L725.468 333.654L731.979 340.813L731.787 320.923Z" fill="#A4A1BB"/>
<path d="M740.404 327.25L759.553 331.451L766.829 322.507L736.574 308.806L740.404 327.25Z" fill="#85899F"/>
<path d="M766.829 289.883L736.574 308.806L766.829 322.507L771.043 312.384L767.213 301.96L772.191 296.656L766.829 289.883Z" fill="#A6A5BB"/>
<path d="M742.511 236.545L741.362 240.587L746.34 240.901L746.149 236.682L742.511 236.545Z" fill="#9B99A3"/>
<path d="M767.788 218.576L769.894 227.399L771.809 216.284L767.788 218.576Z" fill="#6A78A0"/>
<path d="M774.297 255.525L778.702 259.886L780.234 251.396L773.34 242.245L774.297 255.525Z" fill="#838CAF"/>
<path d="M780.234 267.722L787.702 263.573L780.234 260.063V267.722Z" fill="#5F718D"/>
<path d="M790.957 266.95L791.915 276.011L794.404 272.746L790.957 266.95Z" fill="#716E9B"/>
<path d="M790.192 275.029L784.447 271.285L788.468 280.097L790.192 275.029Z" fill="#938DA7"/>
<path d="M797.085 279.162L793.064 286.081L796.127 292.896L800.149 286.785L797.085 279.162Z" fill="#8F8BAE"/>
<path d="M786.171 287.188L788.085 283.732L784.447 286.205L786.171 287.188Z" fill="#777D8D"/>
<path d="M807.808 317.163L811.638 316.712L811.447 310.857L808 311.104L807.808 317.163Z" fill="#8286A6"/>
<path d="M784.83 335.796L791.723 335.315L788.277 322.246L780.234 321.336L774.681 337.321C774.681 337.321 780.809 339.672 780.234 338.67C779.66 337.669 781.957 329.58 781.957 329.58L784.83 335.796Z" fill="#9795B1"/>
<path d="M819.872 335.603C820.447 335.395 823.893 334.547 823.893 334.547L825.808 345.037L823.511 348.902L834.617 352.63L839.596 346.307L844.191 347.877L843.808 355.167L855.681 357.276L842.276 334.137L828.489 323.375L822.936 329.506L818.34 320.063L819.872 335.603Z" fill="#9195B1"/>
<path d="M736.192 348.403L744.617 347.712L743.851 343.9L734.277 342.998L736.192 348.403Z" fill="#7489AF"/>
<path d="M759.362 390.833L758.628 445.059L783.872 440.036L789.809 443.639C789.809 443.639 789.043 455.339 789.617 454.53C790.192 453.721 798.617 457.323 798.617 457.323L811.447 456.067L759.362 390.833Z" fill="#8E92A4"/>
<path d="M801.297 392.324L763.957 386.972L759.361 390.833L811.447 456.066L801.297 392.324Z" fill="#9596B1"/>
<path d="M807.426 366.635L796.511 375.412L790.574 371.834L763.957 386.972L801.297 392.324L807.426 366.635Z" fill="#5C607C"/>
<path d="M832.128 358.721L832.319 389.257L830.979 404.231L801.297 392.324L807.426 366.635L816.234 364.331L810.681 375.29L819.106 384.107L832.128 358.721Z" fill="#7E849F"/>
<path d="M839.787 410.038L837.873 393.866L832.319 389.257L830.979 404.231L839.787 410.038Z" fill="#535778"/>
<path d="M839.787 410.038L830.979 404.231L811.447 456.066L823.702 462.087L837.106 431.904L839.787 410.038Z" fill="#8E8FAC"/>
<path d="M792.68 485.785L803.979 483.749L809.532 478.488L799.766 477.702L792.68 485.785Z" fill="#3B436A"/>
<path d="M869.851 448.157L861.809 465.817L836.915 490.366L841.32 495.015L873.49 456.659L869.851 454.441V448.157Z" fill="#6E6694"/>
<path d="M862.191 332.087L855.489 338.847L863.532 341.19L862.191 332.087Z" fill="#778FA6"/>
<path d="M869.659 344.368L874.447 343.1L869.468 336.87L869.659 344.368Z" fill="#78749E"/>
<path d="M798.617 457.322L798.425 466.807L806.085 471.026L823.702 462.087L811.447 456.066L798.617 457.322Z" fill="#6A6E84"/>
<path d="M793.447 352.645L783.298 351.135L785.596 357.362L793.447 352.645Z" fill="#5D5F89"/>
<path d="M874.829 400.077L880 400.446L876.362 394.186L874.829 400.077Z" fill="#806F8B"/>
<path d="M177.043 378.057L199.965 417.86L216.681 360.948L187.096 356.301L177.043 378.057Z" fill="#E9E2E8"/>
<path d="M199.639 316.203L193.415 280.017L187.054 328.193L199.639 316.203Z" fill="#C9C6D0"/>
<path d="M206.245 498.48L205.671 502.168L209.5 502.554L209.405 497.992L206.245 498.48Z" fill="#C8CDD5"/>
<path d="M188.245 117.535L158.947 150.523L191.979 133.58L180.489 132.562L188.245 117.535Z" fill="#C4C9D5"/>
<path d="M84.266 57.0285L60.5692 55.1589L46.6383 82.0887L60.5692 90.9117L79.6702 75.0687L84.266 57.0285Z" fill="#ECE4EC"/>
<path d="M237.362 377.52V358.115L250 340.757L216.681 360.948L237.362 377.52Z" fill="#ADABBE"/>
<path d="M788.851 52.7113C788.851 52.2575 787.989 46.3845 787.989 46.3845L784.112 46.3492L783.968 52.5528C783.968 52.5528 788.851 53.1649 788.851 52.7113Z" fill="#5973A3"/>
<path d="M379.542 232.96L408.84 295.279L457.67 245.736L379.542 232.96Z" fill="#7C7C95"/>
<path d="M394.191 294.604L408.84 295.279L387.872 287.031L394.191 294.604Z" fill="#4E5D86"/>
<path d="M127.937 96.8205L74.5 152.565L124.191 133.989L127.937 96.8205Z" fill="#FBF9FD"/>
<path d="M124.191 133.989L158.947 150.523L188.245 117.535L124.191 133.989Z" fill="#9B96B3"/>
<path d="M811.447 456.066L830.979 404.231L801.297 392.324L811.447 456.066Z" fill="#999AB5"/>
<path d="M412.574 136.323L421.383 134.431L407.596 122.872L412.574 136.323Z" fill="#9A98B4"/>
<path d="M733.128 443.884L734.851 408.708L759.361 390.833L758.627 445.059L729.106 450.933V447.92L733.128 443.884Z" fill="#8B8EAD"/>
<path d="M689.181 224.266V232.681L697.223 234.34L689.181 224.266Z" fill="#9293AD"/>
</g>
<defs>
<filter id="filter0_d_7_818" x="0" y="0" width="905" height="531" filterUnits="userSpaceOnUse" color-interpolation-filters="sRGB">
<feFlood flood-opacity="0" result="BackgroundImageFix"/>
<feColorMatrix in="SourceAlpha" type="matrix" values="0 0 0 0 0 0 0 0 0 0 0 0 0 0 0 0 0 0 127 0" result="hardAlpha"/>
<feOffset dx="9" dy="4"/>
<feGaussianBlur stdDeviation="8"/>
<feComposite in2="hardAlpha" operator="out"/>
<feColorMatrix type="matrix" values="0 0 0 0 0 0 0 0 0 0 0 0 0 0 0 0 0 0 0.38 0"/>
<feBlend mode="normal" in2="BackgroundImageFix" result="effect1_dropShadow_7_818"/>
<feBlend mode="normal" in="SourceGraphic" in2="effect1_dropShadow_7_818" result="shape"/>
</filter>
<linearGradient id="paint0_linear_7_818" x1="175.247" y1="33.8875" x2="194.646" y2="33.8875" gradientUnits="userSpaceOnUse">
<stop stop-color="#2F3542"/>
<stop offset="1" stop-color="#747CA1"/>
</linearGradient>
<linearGradient id="paint1_linear_7_818" x1="107.27" y1="187.25" x2="103.822" y2="192.612" gradientUnits="userSpaceOnUse">
<stop stop-color="#343A4F"/>
<stop offset="0.16101" stop-color="#414A5E"/>
<stop offset="0.4962" stop-color="#576779"/>
<stop offset="0.78739" stop-color="#647989"/>
<stop offset="1" stop-color="#697F8F"/>
</linearGradient>
<linearGradient id="paint2_linear_7_818" x1="96.3564" y1="239.434" x2="105.32" y2="223.579" gradientUnits="userSpaceOnUse">
<stop stop-color="#343A4F"/>
<stop offset="0.16101" stop-color="#414A5E"/>
<stop offset="0.4962" stop-color="#576779"/>
<stop offset="0.78739" stop-color="#647989"/>
<stop offset="1" stop-color="#697F8F"/>
</linearGradient>
<linearGradient id="paint3_linear_7_818" x1="103.641" y1="257.709" x2="108.621" y2="246.218" gradientUnits="userSpaceOnUse">
<stop stop-color="#687189"/>
<stop offset="0.12061" stop-color="#6D768D"/>
<stop offset="0.62848" stop-color="#7C889C"/>
<stop offset="1" stop-color="#828EA1"/>
</linearGradient>
<linearGradient id="paint4_linear_7_818" x1="108.996" y1="255.137" x2="104.399" y2="268.926" gradientUnits="userSpaceOnUse">
<stop stop-color="#687189"/>
<stop offset="0.12061" stop-color="#6D768D"/>
<stop offset="0.62848" stop-color="#7C889C"/>
<stop offset="1" stop-color="#828EA1"/>
</linearGradient>
<linearGradient id="paint5_linear_7_818" x1="206.334" y1="307.509" x2="212.08" y2="299.083" gradientUnits="userSpaceOnUse">
<stop stop-color="#1F323C"/>
<stop offset="1" stop-color="#5D6E7C"/>
</linearGradient>
<linearGradient id="paint6_linear_7_818" x1="241.045" y1="357.616" x2="251.005" y2="342.296" gradientUnits="userSpaceOnUse">
<stop stop-color="#485E74"/>
<stop offset="0.51075" stop-color="#316373"/>
<stop offset="1" stop-color="#266072"/>
</linearGradient>
<linearGradient id="paint7_linear_7_818" x1="240.826" y1="361.23" x2="240.826" y2="375.02" gradientUnits="userSpaceOnUse">
<stop stop-color="#5D748F"/>
<stop offset="1" stop-color="#6F809A"/>
</linearGradient>
<linearGradient id="paint8_linear_7_818" x1="211.832" y1="405.812" x2="212.27" y2="413.047" gradientUnits="userSpaceOnUse">
<stop stop-color="#213E4D"/>
<stop offset="1" stop-color="#5E788E"/>
</linearGradient>
<linearGradient id="paint9_linear_7_818" x1="193.31" y1="442.37" x2="196.758" y2="446.966" gradientUnits="userSpaceOnUse">
<stop stop-color="#222537"/>
<stop offset="1" stop-color="#4A5B6F"/>
</linearGradient>
<linearGradient id="paint10_linear_7_818" x1="183.352" y1="450.844" x2="186.416" y2="457.356" gradientUnits="userSpaceOnUse">
<stop stop-color="#222537"/>
<stop offset="1" stop-color="#4A5B6F"/>
</linearGradient>
<linearGradient id="paint11_linear_7_818" x1="180.38" y1="458.163" x2="184.594" y2="463.908" gradientUnits="userSpaceOnUse">
<stop stop-color="#222537"/>
<stop offset="1" stop-color="#4A5B6F"/>
</linearGradient>
<linearGradient id="paint12_linear_7_818" x1="180.984" y1="480.622" x2="183.666" y2="471.046" gradientUnits="userSpaceOnUse">
<stop stop-color="#263245"/>
<stop offset="1" stop-color="#556C83"/>
</linearGradient>
<linearGradient id="paint13_linear_7_818" x1="181.889" y1="476.312" x2="189.932" y2="479.375" gradientUnits="userSpaceOnUse">
<stop stop-color="#263245"/>
<stop offset="1" stop-color="#5E6F88"/>
</linearGradient>
<linearGradient id="paint14_linear_7_818" x1="187.385" y1="492.091" x2="189.684" y2="482.133" gradientUnits="userSpaceOnUse">
<stop stop-color="#30425B"/>
<stop offset="1" stop-color="#4F6C87"/>
</linearGradient>
<linearGradient id="paint15_linear_7_818" x1="188.61" y1="492.858" x2="196.271" y2="498.219" gradientUnits="userSpaceOnUse">
<stop stop-color="#30425B"/>
<stop offset="1" stop-color="#4F6C87"/>
</linearGradient>
<linearGradient id="paint16_linear_7_818" x1="194.74" y1="500.673" x2="202.018" y2="507.949" gradientUnits="userSpaceOnUse">
<stop stop-color="#4F5F82"/>
<stop offset="1" stop-color="#656C82"/>
</linearGradient>
<linearGradient id="paint17_linear_7_818" x1="220.168" y1="491.679" x2="211.358" y2="499.338" gradientUnits="userSpaceOnUse">
<stop stop-color="#222537"/>
<stop offset="1" stop-color="#4A5B6F"/>
</linearGradient>
<linearGradient id="paint18_linear_7_818" x1="210.627" y1="131.28" x2="193.482" y2="142.558" gradientUnits="userSpaceOnUse">
<stop stop-color="#4C5C77"/>
<stop offset="1" stop-color="#415F77"/>
</linearGradient>
<linearGradient id="paint19_linear_7_818" x1="162.64" y1="153.33" x2="191.366" y2="136.097" gradientUnits="userSpaceOnUse">
<stop offset="0.00538" stop-color="#3D6775"/>
<stop offset="1" stop-color="#546A80"/>
</linearGradient>
<linearGradient id="paint20_linear_7_818" x1="188.245" y1="124.659" x2="215.326" y2="124.659" gradientUnits="userSpaceOnUse">
<stop stop-color="#375668"/>
<stop offset="1" stop-color="#627486"/>
</linearGradient>
<linearGradient id="paint21_linear_7_818" x1="199.734" y1="117.683" x2="225.909" y2="117.683" gradientUnits="userSpaceOnUse">
<stop stop-color="#55687C"/>
<stop offset="1" stop-color="#415F77"/>
</linearGradient>
<linearGradient id="paint22_linear_7_818" x1="228.462" y1="83.9344" x2="228.079" y2="95.0426" gradientUnits="userSpaceOnUse">
<stop offset="0.00538" stop-color="#8E96B0"/>
<stop offset="1" stop-color="#808796"/>
</linearGradient>
<linearGradient id="paint23_linear_7_818" x1="157.81" y1="93.2209" x2="160.926" y2="81.6084" gradientUnits="userSpaceOnUse">
<stop stop-color="#375668"/>
<stop offset="1" stop-color="#627486"/>
</linearGradient>
<linearGradient id="paint24_linear_7_818" x1="162.149" y1="83.1306" x2="184.747" y2="67.0464" gradientUnits="userSpaceOnUse">
<stop stop-color="#415F77"/>
<stop offset="0.58602" stop-color="#55687C"/>
<stop offset="1" stop-color="#415F77"/>
</linearGradient>
<linearGradient id="paint25_linear_7_818" x1="161.436" y1="39.2766" x2="190.259" y2="39.2766" gradientUnits="userSpaceOnUse">
<stop stop-color="#2F3D43"/>
<stop offset="1" stop-color="#767A83"/>
</linearGradient>
<linearGradient id="paint26_linear_7_818" x1="191.021" y1="45.8136" x2="209.963" y2="45.8136" gradientUnits="userSpaceOnUse">
<stop stop-color="#747CA1"/>
<stop offset="1" stop-color="#2F3542"/>
</linearGradient>
<linearGradient id="paint27_linear_7_818" x1="234.298" y1="28.7494" x2="252.368" y2="28.7494" gradientUnits="userSpaceOnUse">
<stop stop-color="#2F4453"/>
<stop offset="1" stop-color="#60707F"/>
</linearGradient>
<linearGradient id="paint28_linear_7_818" x1="263.995" y1="23.4228" x2="260.548" y2="15.7624" gradientUnits="userSpaceOnUse">
<stop stop-color="#1F323C"/>
<stop offset="1" stop-color="#5D6E7C"/>
</linearGradient>
<linearGradient id="paint29_linear_7_818" x1="198.257" y1="64.7576" x2="208.981" y2="61.3112" gradientUnits="userSpaceOnUse">
<stop stop-color="#1F323C"/>
<stop offset="1" stop-color="#5D6E7C"/>
</linearGradient>
<linearGradient id="paint30_linear_7_818" x1="318.362" y1="55.1567" x2="332.859" y2="55.1567" gradientUnits="userSpaceOnUse">
<stop offset="0.00538" stop-color="#506270"/>
<stop offset="1" stop-color="#798586"/>
</linearGradient>
<linearGradient id="paint31_linear_7_818" x1="326.883" y1="47.8724" x2="347.481" y2="47.8724" gradientUnits="userSpaceOnUse">
<stop stop-color="#1F323C"/>
<stop offset="1" stop-color="#5D6E7C"/>
</linearGradient>
<linearGradient id="paint32_linear_7_818" x1="336.601" y1="39.736" x2="351.101" y2="39.736" gradientUnits="userSpaceOnUse">
<stop stop-color="#1F323C"/>
<stop offset="1" stop-color="#5D6E7C"/>
</linearGradient>
<linearGradient id="paint33_linear_7_818" x1="372.745" y1="116.321" x2="386.771" y2="116.321" gradientUnits="userSpaceOnUse">
<stop stop-color="#707282"/>
<stop offset="1" stop-color="#313641"/>
</linearGradient>
<linearGradient id="paint34_linear_7_818" x1="479.357" y1="127.212" x2="503.34" y2="127.212" gradientUnits="userSpaceOnUse">
<stop stop-color="#4B5261"/>
<stop offset="1" stop-color="#0E131A"/>
</linearGradient>
<linearGradient id="paint35_linear_7_818" x1="407.596" y1="86.1529" x2="418.641" y2="86.1529" gradientUnits="userSpaceOnUse">
<stop stop-color="#70717B"/>
<stop offset="1" stop-color="#484D5A"/>
</linearGradient>
<linearGradient id="paint36_linear_7_818" x1="422.723" y1="97.7648" x2="435.352" y2="97.7648" gradientUnits="userSpaceOnUse">
<stop stop-color="#1F323C"/>
<stop offset="1" stop-color="#647686"/>
</linearGradient>
<linearGradient id="paint37_linear_7_818" x1="462.608" y1="78.746" x2="444.459" y2="79.0484" gradientUnits="userSpaceOnUse">
<stop stop-color="#1F323C"/>
<stop offset="1" stop-color="#647686"/>
</linearGradient>
<linearGradient id="paint38_linear_7_818" x1="417.17" y1="97.1159" x2="418.641" y2="97.1159" gradientUnits="userSpaceOnUse">
<stop stop-color="#1F323C"/>
<stop offset="1" stop-color="#647686"/>
</linearGradient>
<linearGradient id="paint39_linear_7_818" x1="602.741" y1="35.7798" x2="605.039" y2="27.3531" gradientUnits="userSpaceOnUse">
<stop stop-color="#1F323C"/>
<stop offset="1" stop-color="#5D6E7C"/>
</linearGradient>
<linearGradient id="paint40_linear_7_818" x1="572.111" y1="70.4216" x2="562.917" y2="50.8877" gradientUnits="userSpaceOnUse">
<stop stop-color="#1F323C"/>
<stop offset="1" stop-color="#5D6E7C"/>
</linearGradient>
<linearGradient id="paint41_linear_7_818" x1="677.404" y1="38.4086" x2="697.511" y2="38.4086" gradientUnits="userSpaceOnUse">
<stop stop-color="#7B7C8E"/>
<stop offset="1" stop-color="#617888"/>
</linearGradient>
<linearGradient id="paint42_linear_7_818" x1="772.911" y1="85.2186" x2="788.918" y2="85.2186" gradientUnits="userSpaceOnUse">
<stop stop-color="#313B43"/>
<stop offset="1" stop-color="#414B55"/>
</linearGradient>
<linearGradient id="paint43_linear_7_818" x1="787.208" y1="82.0644" x2="797.277" y2="82.0644" gradientUnits="userSpaceOnUse">
<stop stop-color="#313B43"/>
<stop offset="1" stop-color="#414B55"/>
</linearGradient>
<linearGradient id="paint44_linear_7_818" x1="739.859" y1="162.025" x2="752.339" y2="162.025" gradientUnits="userSpaceOnUse">
<stop stop-color="#1A1D1F"/>
<stop offset="1" stop-color="#1D2733"/>
</linearGradient>
<linearGradient id="paint45_linear_7_818" x1="751.93" y1="166.982" x2="768.553" y2="166.982" gradientUnits="userSpaceOnUse">
<stop stop-color="#1A1D1F"/>
<stop offset="1" stop-color="#1D2733"/>
</linearGradient>
<linearGradient id="paint46_linear_7_818" x1="52.7114" y1="195.982" x2="44.2858" y2="197.514" gradientUnits="userSpaceOnUse">
<stop stop-color="#343A4F"/>
<stop offset="1" stop-color="#697F8F"/>
</linearGradient>
<linearGradient id="paint47_linear_7_818" x1="96.47" y1="321.982" x2="152.776" y2="274.877" gradientUnits="userSpaceOnUse">
<stop offset="0.00538" stop-color="#A4A3B8"/>
<stop offset="1" stop-color="#9EA0B9"/>
</linearGradient>
<linearGradient id="paint48_linear_7_818" x1="108.968" y1="268.545" x2="184.798" y2="268.545" gradientUnits="userSpaceOnUse">
<stop stop-color="#9693B1"/>
<stop offset="1" stop-color="#8F8BA3"/>
</linearGradient>
<linearGradient id="paint49_linear_7_818" x1="85.8464" y1="59.0489" x2="134.104" y2="78.1955" gradientUnits="userSpaceOnUse">
<stop stop-color="#E1DCE2"/>
<stop offset="1" stop-color="#E0DBE1"/>
</linearGradient>
<linearGradient id="paint50_linear_7_818" x1="432.105" y1="215.436" x2="466.573" y2="214.287" gradientUnits="userSpaceOnUse">
<stop stop-color="#9A9BB6"/>
<stop offset="1" stop-color="#9996B4"/>
</linearGradient>
<linearGradient id="paint51_linear_7_818" x1="734.633" y1="101.873" x2="763.74" y2="96.8948" gradientUnits="userSpaceOnUse">
<stop stop-color="#B1AEC9"/>
<stop offset="1" stop-color="#9CA4B8"/>
</linearGradient>
<linearGradient id="paint52_linear_7_818" x1="783.016" y1="106.359" x2="811.747" y2="55.0355" gradientUnits="userSpaceOnUse">
<stop stop-color="#BBBDCB"/>
<stop offset="1" stop-color="#DED8E2"/>
</linearGradient>
</defs>
</svg>
